<svg width="340" height="185" viewBox="0 0 340 185" fill="none" xmlns="http://www.w3.org/2000/svg">
<path d="M0 92H163C166.866 92 170 88.866 170 85V0" stroke="white" stroke-opacity="0.2"/>
<path d="M340 92L177 92C173.134 92 170 95.134 170 99L170 185" stroke="white" stroke-opacity="0.2"/>
<g clip-path="url(#clip0_618_3521)">
<path d="M74.939 43.157H80.7448L77.6781 38.3903L72.04 46.9997H69.4762L76.3333 36.6707C76.4828 36.4646 76.6814 36.2959 76.9126 36.1789C77.1437 36.0619 77.4006 35.9999 77.6617 35.9981C77.9229 35.9963 78.1807 36.0548 78.4135 36.1686C78.6464 36.2824 78.8475 36.4483 79 36.6523L85.8762 46.9997H83.3124L82.1048 45.0747H76.2305L74.9505 43.157M101.59 45.0747V36.1023H99.4114V45.9583C99.411 46.0953 99.4395 46.2309 99.4952 46.357C99.5508 46.483 99.6325 46.5969 99.7352 46.6917C99.8384 46.7932 99.9616 46.8738 100.098 46.9286C100.234 46.9834 100.38 47.0113 100.528 47.0107H110.432L111.724 45.0857H101.579M65.5638 43.4723C66.5792 43.4723 67.553 43.0841 68.271 42.393C68.989 41.702 69.3924 40.7647 69.3924 39.7873C69.3924 38.81 68.989 37.8727 68.271 37.1817C67.553 36.4906 66.5792 36.1023 65.5638 36.1023H56.04V46.9997H58.2152V38.031H65.4305C65.9164 38.031 66.3825 38.2168 66.7262 38.5476C67.0698 38.8783 67.2628 39.3269 67.2628 39.7947C67.2628 40.2624 67.0698 40.711 66.7262 41.0418C66.3825 41.3725 65.9164 41.5583 65.4305 41.5583H59.2933L65.7924 46.9997H68.9505L64.5848 43.4723H65.5638ZM42.6609 46.9997H49.24C50.7154 46.9628 52.1176 46.3728 53.1476 45.3553C54.1777 44.3379 54.7541 42.9734 54.7541 41.5528C54.7541 40.1322 54.1777 38.7678 53.1476 37.7504C52.1176 36.7329 50.7154 36.1429 49.24 36.106H42.6609C41.9054 36.0871 41.1536 36.2141 40.4499 36.4793C39.7462 36.7446 39.1048 37.1428 38.5635 37.6504C38.0222 38.1581 37.592 38.7649 37.2982 39.4351C37.0045 40.1054 36.8531 40.8254 36.8531 41.5528C36.8531 42.2803 37.0045 43.0003 37.2982 43.6706C37.592 44.3408 38.0222 44.9476 38.5635 45.4553C39.1048 45.9629 39.7462 46.3611 40.4499 46.6264C41.1536 46.8916 41.9054 47.0185 42.6609 46.9997ZM49.0914 45.082H42.8057C41.8547 45.0525 40.9529 44.6681 40.291 44.0102C39.6292 43.3522 39.2591 42.4723 39.2591 41.5565C39.2591 40.6407 39.6292 39.7608 40.291 39.1028C40.9529 38.4449 41.8547 38.0605 42.8057 38.031H49.0914C49.5824 38.0158 50.0715 38.0957 50.5297 38.266C50.988 38.4363 51.4059 38.6935 51.7588 39.0224C52.1117 39.3513 52.3923 39.7451 52.5839 40.1804C52.7756 40.6158 52.8743 41.0837 52.8743 41.5565C52.8743 42.0293 52.7756 42.4973 52.5839 42.9326C52.3923 43.3679 52.1117 43.7617 51.7588 44.0906C51.4059 44.4195 50.988 44.6767 50.5297 44.847C50.0715 45.0173 49.5824 45.0973 49.0914 45.082ZM90.4209 46.9997H97.1371L98.4095 45.082H90.5695C90.0786 45.0973 89.5894 45.0173 89.1312 44.847C88.673 44.6767 88.255 44.4195 87.9021 44.0906C87.5492 43.7617 87.2686 43.3679 87.077 42.9326C86.8854 42.4973 86.7866 42.0293 86.7866 41.5565C86.7866 41.0837 86.8854 40.6158 87.077 40.1804C87.2686 39.7451 87.5492 39.3513 87.9021 39.0224C88.255 38.6935 88.673 38.4363 89.1312 38.266C89.5894 38.0957 90.0786 38.0158 90.5695 38.031H96.9505L98.2381 36.106H90.4209C89.6654 36.0871 88.9136 36.2141 88.2099 36.4793C87.5062 36.7446 86.8647 37.1428 86.3235 37.6504C85.7822 38.1581 85.352 38.7649 85.0582 39.4351C84.7645 40.1054 84.6132 40.8254 84.6132 41.5528C84.6132 42.2803 84.7645 43.0003 85.0582 43.6706C85.352 44.3408 85.7822 44.9476 86.3235 45.4553C86.8647 45.9629 87.5062 46.3611 88.2099 46.6264C88.9136 46.8916 89.6654 47.0185 90.4209 46.9997ZM117.038 45.082C116.24 45.0823 115.463 44.8318 114.827 44.3685C114.19 43.9052 113.728 43.2545 113.51 42.5153H122.813L124.093 40.594H113.51C113.727 39.8545 114.189 39.2035 114.826 38.7401C115.463 38.2767 116.24 38.0264 117.038 38.0273H123.423L124.699 36.1023H116.89C115.414 36.1392 114.012 36.7292 112.982 37.7467C111.952 38.7641 111.375 40.1286 111.375 41.5492C111.375 42.9698 111.952 44.3342 112.982 45.3517C114.012 46.3691 115.414 46.9592 116.89 46.996H123.606L124.882 45.0783H117.034" fill="white"/>
</g>
<g clip-path="url(#clip1_618_3521)">
<path d="M81.2246 154.964H58V131H104L81.2246 154.964ZM64.3008 135.25C62.3205 135.25 60.7001 135.906 59.71 136.993C59.0799 137.749 58.6299 138.709 58.6299 139.773C58.6299 141.237 59.17 142.276 60.1602 143.104C61.1502 143.8 62.2305 144.253 63.3105 144.586C64.5706 144.996 65.5611 145.352 65.5615 146.113C65.5615 146.395 65.4711 146.651 65.291 146.856C64.931 147.197 64.4808 147.326 63.7607 147.342C62.5006 147.366 61.6005 147.155 60.0703 146.214L58.6299 149.138C60.1601 150.044 61.9605 150.576 63.7607 150.576L64.0312 150.574C65.5615 150.544 66.9122 150.065 67.9023 149.195C67.992 149.144 67.9923 149.097 68.082 149.05L67.6318 150.322H71.7725L72.4033 148.116C73.1234 148.37 73.9339 148.518 74.834 148.518C75.7339 148.518 76.4538 148.374 77.1738 148.134L77.8945 150.322H84.5557V145.746H86.0859C89.5966 145.746 91.6669 143.85 91.667 140.67C91.667 137.13 89.6863 135.504 85.2754 135.504L80.7744 135.503V146.839L76.8135 135.503H72.9434L69.5225 144.983C69.1624 142.596 66.822 141.77 64.9316 141.152C63.7616 140.737 62.4114 140.127 62.501 139.46C62.501 138.907 63.1312 138.399 64.4814 138.475C65.3815 138.523 66.1916 138.601 67.8115 139.414L69.4326 136.526C67.9023 135.746 65.9211 135.252 64.3008 135.25ZM76.2734 144.953C75.8236 145.116 75.3737 145.209 74.834 145.209C74.294 145.209 73.8436 145.11 73.3936 144.938L74.834 140.169L76.2734 144.953ZM85.5459 138.622C86.896 138.622 87.9764 139.087 87.9766 140.524C87.9766 142.003 86.8962 142.467 85.5459 142.467H84.5557V138.622H85.5459Z" fill="white"/>
<path d="M86.8963 153.432C86.8963 152.7 87.4365 152.142 88.0666 152.142C88.6967 152.142 89.2368 152.7 89.2368 153.432C89.2368 154.192 88.6967 154.74 88.0666 154.74C87.4365 154.74 86.8963 154.192 86.8963 153.432ZM88.0666 155C88.8768 155 89.5969 154.335 89.5969 153.432C89.5969 152.543 88.8768 151.889 88.0666 151.889C87.2564 151.889 86.5363 152.543 86.5363 153.432C86.5363 154.335 87.2564 155 88.0666 155ZM87.7965 153.562H88.0666L88.5167 154.335H88.7867L88.3366 153.547C88.5167 153.515 88.7867 153.375 88.7867 153.057C88.7867 152.7 88.5167 152.543 88.1566 152.543H87.5265V154.335H87.7965V153.562ZM87.7965 153.331V152.771H88.1566C88.2466 152.771 88.5167 152.814 88.5167 153.041C88.5167 153.313 88.2466 153.331 88.0666 153.331H87.7965Z" fill="white"/>
</g>
<path d="M226.987 34.6239C230.491 34.6239 231.863 36.2477 231.863 38.3189C231.896 39.5119 231.218 40.622 230.144 41.1191C231.466 41.5996 232.325 42.8588 232.276 44.2672C232.276 46.4875 230.871 48.1113 227.268 48.1113H222.195V34.6239H226.987ZM224.31 36.6122V40.2906H226.987C229.02 40.2906 229.714 39.4621 229.714 38.468C229.714 37.391 229.004 36.6122 226.987 36.6122H224.31ZM224.31 42.1464V46.1395H227.252C229.4 46.1395 230.127 45.3442 230.127 44.1512C230.127 43.008 229.4 42.1629 227.252 42.1629L224.31 42.1464ZM234.259 33.5801H236.308V44.6814C236.308 45.9407 236.689 46.3218 237.201 46.3218C237.449 46.3384 237.697 46.2721 237.928 46.1561L238.523 47.9787C238.011 48.1775 237.465 48.277 236.936 48.277C235.433 48.277 234.259 47.3657 234.259 44.6814V33.5801ZM248.505 47.7965C247.1 48.1775 245.646 48.3598 244.192 48.3432C241.647 48.3432 239.779 47.0674 239.779 43.8364V37.7389H241.828V43.969C241.828 45.891 242.82 46.3715 244.34 46.3715C245.035 46.4046 245.745 46.3384 246.423 46.1727V37.7224H248.489L248.505 47.7965ZM259.76 43.7204H252.736V43.8033C252.736 45.4768 253.86 46.3715 255.678 46.3715C256.785 46.3881 257.892 46.2058 258.95 45.8579L259.545 47.7136C258.306 48.1444 257 48.3598 255.678 48.3432C252.571 48.3432 250.621 46.8023 250.621 43.1571V42.7097C250.621 39.0811 252.406 37.5401 255.199 37.5401C257.992 37.5401 259.76 39.0811 259.76 42.7097V43.7204ZM252.736 42.1464H257.644V42.0469C257.644 40.3072 256.686 39.4953 255.199 39.4953C253.711 39.4953 252.736 40.3072 252.736 42.0469V42.1464ZM266.255 42.892V48.1278H264.106V42.9417L258.95 34.6405H261.38L265.197 40.9534L268.982 34.6405H271.395L266.255 42.892ZM270.139 42.776C270.139 39.0645 272.105 37.5401 274.799 37.5401C277.493 37.5401 279.46 39.0479 279.46 42.776V43.1074C279.46 46.8189 277.477 48.3432 274.799 48.3432C272.122 48.3432 270.139 46.8354 270.139 43.1074V42.776ZM277.361 42.776C277.361 40.2906 276.402 39.4953 274.799 39.4953C273.18 39.4953 272.221 40.2906 272.221 42.776V43.1074C272.221 45.5927 273.18 46.3881 274.816 46.3881C276.452 46.3881 277.377 45.5927 277.377 43.1074L277.361 42.776ZM281.493 38.0703C282.881 37.6892 284.335 37.507 285.773 37.5236C288.318 37.5236 290.202 38.7828 290.202 42.0304V48.1113H288.136V41.8812C288.136 39.9592 287.145 39.4787 285.624 39.4787C284.914 39.4621 284.203 39.5119 283.509 39.661V48.1113H281.46L281.493 38.0703ZM300.829 47.7965C299.54 48.161 298.218 48.3432 296.896 48.3432C294.053 48.3432 292.119 46.6697 292.119 43.1571V42.7428C292.119 39.1473 294.169 37.5567 296.962 37.5567C297.59 37.5401 298.201 37.6561 298.78 37.8715V33.5966H300.829V47.7965ZM294.185 43.1405C294.185 45.6756 295.243 46.3715 296.962 46.3715C297.573 46.3881 298.185 46.3218 298.78 46.1727V39.8432C298.251 39.5947 297.689 39.4787 297.11 39.4953C295.392 39.4953 294.185 40.1581 294.185 42.7263V43.1405ZM312.034 43.7204H305.01V43.8033C305.01 45.4768 306.134 46.3715 307.952 46.3715C309.059 46.3881 310.167 46.2058 311.224 45.8579L311.819 47.7136C310.58 48.1444 309.258 48.3598 307.952 48.3432C304.845 48.3432 302.895 46.8023 302.895 43.1571V42.7097C302.895 39.0811 304.68 37.5401 307.473 37.5401C310.266 37.5401 312.034 39.0811 312.034 42.7097V43.7204ZM305.06 42.1464H309.968V42.0469C309.968 40.3072 309.01 39.4953 307.522 39.4953C306.035 39.4953 305.06 40.3072 305.06 42.0469V42.1464ZM314.183 38.0703C315.306 37.7224 316.48 37.5401 317.653 37.5567C318.446 37.5401 319.223 37.6395 320 37.8218L319.372 39.7107C318.86 39.5616 318.314 39.4953 317.769 39.5119C317.24 39.4953 316.728 39.5616 316.215 39.6775V48.1278H314.166L314.183 38.0703Z" fill="white"/>
<path d="M208.461 33C207.007 33 205.833 34.1764 205.833 35.6345C205.833 37.0926 207.007 38.269 208.461 38.269C209.915 38.269 211.089 37.0926 211.089 35.6345C211.089 34.1764 209.915 33 208.461 33ZM208.461 50C209.915 50 211.089 48.8236 211.089 47.3655C211.089 45.9074 209.915 44.731 208.461 44.731C207.007 44.731 205.833 45.9074 205.833 47.3655C205.833 48.8236 207.007 50 208.461 50ZM209.006 41.5C209.006 41.7485 209.155 41.9805 209.37 42.0799L213.171 43.886C214.477 44.499 216.047 43.9357 216.658 42.6267C217.27 41.3177 216.708 39.7437 215.402 39.1306C214.692 38.7992 213.882 38.7992 213.171 39.1306L209.37 40.9366C209.155 41.0195 209.006 41.2515 209.006 41.5ZM207.899 41.5C207.899 41.2515 207.75 41.0195 207.536 40.9201L203.734 39.114C202.429 38.501 200.859 39.0643 200.247 40.3733C199.636 41.6823 200.198 43.2563 201.503 43.8694C202.214 44.2008 203.024 44.2008 203.734 43.8694L207.536 42.0634C207.75 41.9805 207.899 41.7485 207.899 41.5Z" fill="white"/>
<g clip-path="url(#clip2_618_3521)">
<path d="M249 160L255.857 140.99L249 136.646V160ZM270.688 148.242V137.45L249 160L270.688 148.242ZM249 126V135.11L263.153 141.814L269.731 136.646L249 126Z" fill="white"/>
</g>
<defs>
<clipPath id="clip0_618_3521">
<rect width="88" height="11" fill="white" transform="translate(37 36)"/>
</clipPath>
<clipPath id="clip1_618_3521">
<rect width="46" height="24" fill="white" transform="translate(58 131)"/>
</clipPath>
<clipPath id="clip2_618_3521">
<rect width="22" height="34" fill="white" transform="translate(249 126)"/>
</clipPath>
</defs>
</svg>
