<svg width="210" height="210" viewBox="0 0 210 210" fill="none" xmlns="http://www.w3.org/2000/svg">
<path d="M105 190L50 190C33.4315 190 20 176.569 20 160L20 105" stroke="url(#paint0_linear_618_4134)"/>
<rect x="20.5" y="20.5" width="84" height="84" rx="29.5" stroke="#FF6340"/>
<rect x="45.5" y="45.5" width="34" height="34" rx="9.5" stroke="white"/>
<path d="M105 20H160C176.569 20 190 33.4315 190 50V105" stroke="url(#paint1_linear_618_4134)"/>
<path d="M124 45H154C160.075 45 165 49.9249 165 56V86" stroke="url(#paint2_linear_618_4134)"/>
<path d="M86 165L56 165C49.9249 165 45 160.075 45 154L45 124" stroke="url(#paint3_linear_618_4134)"/>
<path d="M124 70H136C138.21 70 140 71.7909 140 74V86" stroke="url(#paint4_linear_618_4134)"/>
<path d="M86.0004 140L74.0004 140C71.7912 140 70.0004 138.209 70.0004 136L70.0004 124" stroke="url(#paint5_linear_618_4134)"/>
<rect x="105.5" y="105.5" width="84" height="84" rx="29.5" stroke="white"/>
<rect x="130.5" y="130.5" width="34" height="34" rx="9.5" stroke="#FF6340"/>
<path d="M3 122L20 105L37 122" stroke="url(#paint6_linear_618_4134)"/>
<path d="M207 88L190 105L173 88" stroke="url(#paint7_linear_618_4134)"/>
<defs>
<linearGradient id="paint0_linear_618_4134" x1="20" y1="105" x2="105" y2="190" gradientUnits="userSpaceOnUse">
<stop stop-color="white"/>
<stop offset="1" stop-color="white" stop-opacity="0"/>
</linearGradient>
<linearGradient id="paint1_linear_618_4134" x1="190" y1="105" x2="105" y2="20" gradientUnits="userSpaceOnUse">
<stop stop-color="#FF6340"/>
<stop offset="1" stop-color="#FF6340" stop-opacity="0"/>
</linearGradient>
<linearGradient id="paint2_linear_618_4134" x1="124" y1="45" x2="165" y2="86" gradientUnits="userSpaceOnUse">
<stop stop-color="white" stop-opacity="0"/>
<stop offset="1" stop-color="white"/>
</linearGradient>
<linearGradient id="paint3_linear_618_4134" x1="45" y1="124" x2="86" y2="165" gradientUnits="userSpaceOnUse">
<stop stop-color="#FF6340"/>
<stop offset="1" stop-color="#FF6340" stop-opacity="0"/>
</linearGradient>
<linearGradient id="paint4_linear_618_4134" x1="124" y1="70" x2="140" y2="86" gradientUnits="userSpaceOnUse">
<stop stop-color="#FF6340" stop-opacity="0"/>
<stop offset="1" stop-color="#FF6340"/>
</linearGradient>
<linearGradient id="paint5_linear_618_4134" x1="70.0004" y1="124" x2="86.0004" y2="140" gradientUnits="userSpaceOnUse">
<stop stop-color="white"/>
<stop offset="1" stop-color="white" stop-opacity="0"/>
</linearGradient>
<linearGradient id="paint6_linear_618_4134" x1="20" y1="105" x2="20" y2="122" gradientUnits="userSpaceOnUse">
<stop stop-color="white"/>
<stop offset="1" stop-color="white" stop-opacity="0"/>
</linearGradient>
<linearGradient id="paint7_linear_618_4134" x1="190" y1="88" x2="190" y2="105" gradientUnits="userSpaceOnUse">
<stop stop-color="#FF6340" stop-opacity="0"/>
<stop offset="1" stop-color="#FF6340"/>
</linearGradient>
</defs>
</svg>
