<svg width="100" height="26" viewBox="0 0 100 26" fill="none" xmlns="http://www.w3.org/2000/svg">
<g clip-path="url(#clip0_1047_1537)">
<path d="M5.79634 0H3.58984V2.17003H5.79634V0Z" fill="white"/>
<path d="M8.85753 0H6.6875V2.17003H8.85753V0Z" fill="white"/>
<path d="M11.557 6.82016V9.6102H8.85816V3.51953C4.59105 3.79306 1.60042 6.71075 1.14453 11.7802H3.36927C3.93457 8.7896 5.11988 6.71075 6.68813 6.18192V11.7802H11.557V13.4944H14.2376C16.3165 13.4944 17.6659 12.1449 17.6659 10.0661V3.51953H14.9853C12.9429 3.51953 11.557 4.86896 11.557 6.82016ZM15.4594 9.97491C15.4594 10.8685 15.0765 11.3061 14.2741 11.3061H13.727V7.02075C13.727 6.12721 14.11 5.68956 14.9124 5.68956H15.4594V9.97491Z" fill="white"/>
<path d="M33.9513 13.1475H31.7812V15.354H33.9513V13.1475Z" fill="white"/>
<path d="M37.0294 13.1475H34.8594V15.354H37.0294V13.1475Z" fill="white"/>
<path d="M39.7102 9.61013H37.0296V3.51946H34.8596V9.61013H30.2825V3.51946H27.6019C25.5595 3.51946 24.1736 4.86889 24.1736 6.82009V9.61013H21.4747V0H19.3047V11.7802H24.1736V13.4943H26.7813C28.1672 13.4943 29.2066 12.929 29.8631 11.7802H41.8803V0H39.7102V9.61013ZM28.076 9.97484C28.076 10.8684 27.693 11.306 26.8907 11.306H26.3436V7.02068C26.3436 6.12714 26.7265 5.68949 27.5289 5.68949H28.076V9.97484Z" fill="white"/>
<path d="M45.6935 0H43.5234V11.7802H45.6935V0Z" fill="white"/>
<path d="M57.5854 3.51953H55.3789V5.68956H57.5854V3.51953Z" fill="white"/>
<path d="M60.6466 3.51953H58.4766V5.68956H60.6466V3.51953Z" fill="white"/>
<path d="M70.131 0H67.9609V2.17003H70.131V0Z" fill="white"/>
<path d="M93.8562 9.6102H91.4309V4.99661H89.2608V9.6102H86.7808V6.45545H84.6108V9.6102H78.9395V3.51953H76.2589C74.2165 3.51953 72.8306 4.86896 72.8306 6.82016V9.6102H70.1318V3.51953H67.9617V9.6102H65.2811V3.51953H63.1111V9.6102H54.2851C53.3915 9.6102 52.9357 9.22725 52.9357 8.42489V4.3766H50.7656V8.35195C50.7656 10.3943 52.0968 11.7802 54.0845 11.7802H72.8306V13.4944H75.4383C76.8242 13.4944 77.8636 12.9291 78.5201 11.7802H96.0262V3.51953H93.8562V9.6102ZM76.733 9.97491C76.733 10.8685 76.3501 11.3061 75.5477 11.3061H75.0006V7.02075C75.0006 6.12721 75.3836 5.68956 76.186 5.68956H76.733V9.97491Z" fill="white"/>
<path d="M99.8497 0H97.6797V11.7802H99.8497V0Z" fill="white"/>
<path d="M7.13009 18.7783L4.227 22.4546V25.5036H2.91404V22.4947L0 18.7783H1.73967L3.66169 21.3568L5.59466 18.7783H7.12644H7.13009Z" fill="white"/>
<path d="M13.9602 25.5036H12.4941L11.8194 24.0302H8.26709L7.61426 25.5036H6.30859L9.48158 18.7783H10.7435L13.9602 25.5036ZM11.276 22.8193L10.0688 20.084L8.8178 22.8193H11.2723H11.276Z" fill="white"/>
<path d="M22.5541 25.5038H21.3469V21.3206C21.3469 21.1747 21.3615 20.9413 21.3907 20.6313C21.325 20.7954 21.2156 21.0325 21.0661 21.3352L18.9581 24.6978H18.6991L16.5911 21.3243C16.4379 21.0799 16.3285 20.8501 16.2556 20.635C16.2774 20.9048 16.2884 21.1273 16.2884 21.2987V25.5075H15.2344V18.7822H16.2884L18.9289 22.8488L21.5147 18.7822H22.5578V25.5075L22.5541 25.5038Z" fill="white"/>
<path d="M31.1126 25.5036H29.6464L28.9717 24.0302H25.4194L24.7666 25.5036H23.4609L26.6339 18.7783H27.8958L31.1126 25.5036ZM28.4283 22.8193L27.2211 20.084L25.9701 22.8193H28.4246H28.4283Z" fill="white"/>
<path d="M39.3432 25.5038H38.136V21.3206C38.136 21.1747 38.1506 20.9413 38.1798 20.6313C38.1141 20.7954 38.0047 21.0325 37.8552 21.3352L35.7471 24.6978H35.4882L33.3802 21.3243C33.227 21.0799 33.1176 20.8501 33.0446 20.635C33.0665 20.9048 33.0775 21.1273 33.0775 21.2987V25.5075H32.0234V18.7822H33.0775L35.718 22.8488L38.3038 18.7822H39.3468V25.5075L39.3432 25.5038Z" fill="white"/>
<path d="M47.9016 25.5036H46.4355L45.7608 24.0302H42.2085L41.5557 25.5036H40.25L43.423 18.7783H44.6849L47.9016 25.5036ZM45.2174 22.8193L44.0102 20.084L42.7592 22.8193H45.2137H45.2174Z" fill="white"/>
<path d="M59.0178 23.9134C59.0178 24.5371 58.9193 24.9602 58.7187 25.179C58.5181 25.3978 58.157 25.5036 57.6282 25.5036H54.2802C53.7513 25.5036 53.3866 25.3942 53.1897 25.179C52.9891 24.9602 52.8906 24.5407 52.8906 23.9134V20.3685C52.8906 19.7412 52.9891 19.3217 53.1897 19.1029C53.3903 18.8841 53.7513 18.7783 54.2802 18.7783H57.6282C58.2956 18.7783 58.7078 18.9643 58.8682 19.34C58.9704 19.5588 59.0214 20.1132 59.0214 21.0067H57.7194V19.9782H54.1999V24.238H57.7194V23.1184H59.0214V23.9134H59.0178Z" fill="white"/>
<path d="M67.0104 25.5036H61.2188V18.7783H66.9556V19.9235H62.5208V21.4225H65.1066V22.5677H62.5208V24.2344H67.0067V25.4999L67.0104 25.5036Z" fill="white"/>
<path d="M75.9408 25.5038H74.7336V21.3206C74.7336 21.1747 74.7482 20.9413 74.7774 20.6313C74.7118 20.7954 74.6023 21.0325 74.4528 21.3352L72.3448 24.6978H72.0858L69.9778 21.3243C69.8246 21.0799 69.7152 20.8501 69.6423 20.635C69.6642 20.9048 69.6751 21.1273 69.6751 21.2987V25.5075H68.6211V18.7822H69.6751L72.3156 22.8488L74.9014 18.7822H75.9445V25.5075L75.9408 25.5038Z" fill="white"/>
<path d="M83.3385 25.5036H77.5469V18.7783H83.2838V19.9235H78.8489V21.4225H81.4347V22.5677H78.8489V24.2344H83.3348V25.4999L83.3385 25.5036Z" fill="white"/>
<path d="M91.9026 25.5036H91.0127L86.8951 21.3459C86.72 21.1708 86.5668 20.9885 86.4283 20.7988C86.4647 21.2328 86.483 21.5756 86.483 21.8273V25.5036H85.3086V18.7783H86.1985L90.1447 22.7391C90.4255 23.0272 90.6407 23.2679 90.7865 23.4685C90.7501 22.8448 90.7318 22.4582 90.7318 22.3087V18.7783H91.9062V25.5036H91.9026Z" fill="white"/>
<path d="M100.002 19.9782H97.4159V25.5036H96.1139V19.9782H93.5391V18.7783H100.005V19.9782H100.002Z" fill="white"/>
</g>
<defs>
<clipPath id="clip0_1047_1537">
<rect width="100" height="25.5042" fill="white"/>
</clipPath>
</defs>
</svg>
