<svg width="180" height="100" viewBox="0 0 180 100" fill="none" xmlns="http://www.w3.org/2000/svg">
<g clip-path="url(#clip0_1096_1472)">
<path d="M79.6152 71.4885C76.2032 71.305 73.6572 69.901 72.1682 67.382C71.1692 65.691 70.8652 63.467 71.3222 61.1945C71.8287 58.6765 73.5482 56.4075 76.1872 54.7755C77.7037 53.837 79.0017 53.2545 81.6447 52.3255C82.3092 52.092 82.8827 51.877 82.9197 51.847C82.9727 51.805 82.9802 51.656 82.9537 51.1725C82.8777 49.797 83.1072 47.654 83.4957 46.1075C84.1492 43.505 85.4067 41.4055 87.0757 40.132C88.2737 39.217 89.8442 38.529 91.4077 38.234C92.2712 38.0715 93.7172 38.072 94.5297 38.2355C98.0112 38.9365 99.9652 41.62 99.1957 44.6435C99.0337 45.281 98.5217 46.326 98.0882 46.904C96.9777 48.385 95.3072 49.702 92.9482 50.955C92.6517 51.113 91.6807 51.59 90.7912 52.016C89.9017 52.4415 89.1462 52.818 89.1112 52.853C89.0617 52.9025 89.0742 53.047 89.1702 53.533C89.6127 55.78 90.3567 57.6785 91.6272 59.8015C92.1322 60.6465 92.8307 61.712 92.9102 61.7615C93.0252 61.8325 93.4952 61.073 93.8017 60.3215C94.1807 59.3915 94.3977 58.1615 94.2907 57.5505C94.2137 57.113 93.9747 56.651 93.6697 56.3525C93.5297 56.2145 93.4137 56.084 93.4132 56.0625C93.4127 56.0415 94.5967 56.0295 96.0452 56.037L98.6787 56.0505L98.6637 56.3845C98.6432 56.841 98.4737 57.8145 98.2952 58.5075C97.7917 60.456 96.8427 62.1225 95.2022 63.9425C95.0087 64.157 94.8502 64.3675 94.8502 64.4105C94.8502 64.4535 95.1222 64.752 95.4542 65.074C97.5277 67.084 101.201 69.402 104.191 70.5875C104.482 70.703 104.719 70.8205 104.718 70.8485C104.717 70.8825 102.99 70.9045 99.6722 70.9135L94.6282 70.9265L94.3412 70.765C93.7552 70.4355 92.4577 69.387 91.2112 68.235C90.9472 67.991 90.6972 67.7915 90.6557 67.7915C90.6142 67.7915 90.3207 67.962 90.0047 68.1705C88.3852 69.2385 86.4497 70.198 84.8127 70.744C82.9507 71.3655 81.4137 71.585 79.6152 71.4885ZM83.8622 67.1185C84.6172 66.984 85.5447 66.71 86.3977 66.3695C87.2552 66.0275 88.3182 65.5045 88.3562 65.4055C88.3712 65.3665 88.1747 65.038 87.9202 64.675C86.7467 63.003 85.4932 60.6515 84.6507 58.5425C84.3402 57.765 83.7602 56.043 83.6492 55.571C83.6142 55.4205 83.5507 55.284 83.5082 55.2675C83.3907 55.2225 82.4272 55.736 81.5947 56.288C78.6357 58.2495 77.2172 60.644 77.5322 63.146C77.6722 64.258 78.0242 65.0685 78.6647 65.753C79.8487 67.018 81.6997 67.5045 83.8622 67.1185ZM88.8847 49.7205C89.9797 49.0795 91.7167 47.523 92.6882 46.313C93.9317 44.7645 94.5927 43.3195 94.5932 42.1475C94.5932 41.4775 94.4982 41.1775 94.1882 40.8675C93.8797 40.5595 93.5317 40.432 93.0002 40.4315C91.4232 40.4315 89.7177 42.3035 88.9747 44.8505C88.5997 46.1345 88.5087 46.8255 88.5062 48.394C88.5042 49.592 88.5237 49.8585 88.6137 49.8585C88.6332 49.8585 88.7552 49.7965 88.8847 49.7205ZM114.966 71.4585C112.368 71.197 110.655 70.8085 108.723 70.0435C106.094 69.0015 104.453 67.711 103.066 65.5965C102.651 64.9635 101.985 63.6345 101.716 62.9C100.514 59.6275 100.25 55.5075 100.966 51.2095C101.692 46.8595 103.344 42.667 105.624 39.39C107.103 37.265 109.304 35.027 111.575 33.337C115.326 30.547 119.644 28.832 124.44 28.229C125.895 28.046 126.71 27.999 128.429 28C131.028 28.0015 133.008 28.1995 135.623 28.719C137.291 29.051 139.948 29.768 139.999 29.9005C140.025 29.9675 138.341 35.363 138.272 35.4355C138.25 35.458 137.992 35.2855 137.698 35.0505C135.334 33.1655 132.883 32.018 130.405 31.6365C129.614 31.5145 128.126 31.513 127.35 31.6335C123.876 32.1715 120.655 34.391 117.796 38.2175C116.867 39.4605 115.843 41.1265 115.047 42.6905C113.969 44.8105 113.227 46.6845 112.477 49.1905C110.088 57.1635 109.967 62.734 112.117 65.7495C113.003 66.992 114.297 67.7835 115.94 68.086C116.883 68.26 119.172 68.1545 119.4 67.927C119.436 67.891 120.554 64.3945 121.883 60.157C124.067 53.1965 124.303 52.4115 124.328 52.017C124.361 51.487 124.262 51.0135 124.024 50.5575C123.807 50.143 123.235 49.5805 122.764 49.319C122.56 49.206 122.393 49.096 122.393 49.075C122.392 49.054 126.056 49.0365 130.536 49.0365C135.015 49.0365 138.68 49.054 138.679 49.075C138.679 49.096 138.481 49.2045 138.238 49.315C136.97 49.895 136.051 50.764 135.505 51.901C135.386 52.147 134.361 55.331 132.822 60.234L130.33 68.169L129.61 68.514C126.678 69.9215 123.09 70.935 119.512 71.3675C118.854 71.4475 115.517 71.514 114.967 71.4585H114.966ZM40.0017 70.8785C39.9852 70.8525 40.0937 70.761 40.2422 70.6755C41.1272 70.166 42.1207 69.109 42.5417 68.228C42.6637 67.973 53.8352 32.393 54.0817 31.4735C54.1252 31.3125 54.1617 30.9725 54.1622 30.7185C54.1657 29.9425 53.9247 29.383 53.3572 28.846C53.2022 28.6995 53.0757 28.558 53.0757 28.5315C53.0757 28.461 72.5832 28.467 73.4777 28.538C75.4147 28.6915 77.3537 29.2065 78.8367 29.9605C81.3687 31.248 82.8847 33.202 83.3507 35.7785C83.4807 36.4955 83.5057 38.0905 83.3992 38.8625C82.9652 42.0095 81.5392 45.3475 79.5977 47.7625C76.4527 51.6745 71.3092 54.176 64.9967 54.864C62.9957 55.082 60.4742 55.137 58.6887 55.001C58.1727 54.9615 57.7397 54.94 57.7267 54.953C57.6632 55.017 53.6357 67.9395 53.5897 68.228C53.4477 69.1175 53.9057 70.1175 54.6952 70.6415C54.8512 70.745 54.9652 70.8515 54.9492 70.8775C54.9092 70.942 40.0412 70.9425 40.0012 70.878L40.0017 70.8785ZM62.1447 51.685C63.6112 51.425 64.9052 50.882 66.1537 50.0035C66.7602 49.577 68.0062 48.3325 68.5202 47.64C69.8062 45.9085 70.7522 43.8655 71.5152 41.1745C72.0012 39.4595 72.2082 38.153 72.2077 36.8065C72.2077 35.7685 72.1137 35.1485 71.8527 34.453C71.4652 33.421 70.6762 32.6055 69.6737 32.2005C68.8127 31.8525 68.0777 31.761 66.3097 31.7815L64.9767 31.7965L61.8782 41.6625C60.1747 47.089 58.7897 51.555 58.8012 51.587C58.8132 51.619 59.0272 51.673 59.2762 51.707C59.5262 51.741 59.7647 51.777 59.8072 51.7875C60.0012 51.835 61.7282 51.759 62.1447 51.685Z" fill="#172E64"/>
</g>
<defs>
<clipPath id="clip0_1096_1472">
<rect width="100" height="43.5105" fill="white" transform="translate(40 28)"/>
</clipPath>
</defs>
</svg>
