<svg width="180" height="100" viewBox="0 0 180 100" fill="none" xmlns="http://www.w3.org/2000/svg">
<g clip-path="url(#clip0_1096_1476)">
<path d="M23.6926 31H20.3828V34.255H23.6926V31Z" fill="#172E64"/>
<path d="M28.2863 31H25.0312V34.255H28.2863V31Z" fill="#172E64"/>
<path d="M32.3375 41.2302V45.4153H28.2892V36.2793C21.8885 36.6896 17.4026 41.0661 16.7188 48.6703H20.0559C20.9038 44.1844 22.6818 41.0661 25.0342 40.2729V48.6703H32.3375V51.2415H36.3584C39.4767 51.2415 41.5008 49.2174 41.5008 46.0991V36.2793H37.4799C34.4163 36.2793 32.3375 38.3034 32.3375 41.2302ZM38.1911 45.9624C38.1911 47.3027 37.6167 47.9592 36.4131 47.9592H35.5925V41.5311C35.5925 40.1908 36.1669 39.5343 37.3705 39.5343H38.1911V45.9624Z" fill="#172E64"/>
<path d="M65.9269 50.7217H62.6719V54.0314H65.9269V50.7217Z" fill="#172E64"/>
<path d="M70.5519 50.7217H67.2969V54.0314H70.5519V50.7217Z" fill="#172E64"/>
<path d="M74.5693 45.4152H70.5483V36.2792H67.2933V45.4152H60.4276V36.2792H56.4067C53.3431 36.2792 51.2643 38.3033 51.2643 41.2301V45.4152H47.216V31H43.9609V48.6702H51.2643V51.2414H55.1758C57.2546 51.2414 58.8138 50.3935 59.7985 48.6702H77.8243V31H74.5693V45.4152ZM57.1179 45.9623C57.1179 47.3026 56.5435 47.959 55.3399 47.959H54.5193V41.531C54.5193 40.1907 55.0937 39.5342 56.2973 39.5342H57.1179V45.9623Z" fill="#172E64"/>
<path d="M83.5441 31H80.2891V48.6702H83.5441V31Z" fill="#172E64"/>
<path d="M101.38 36.2793H98.0703V39.5343H101.38V36.2793Z" fill="#172E64"/>
<path d="M105.974 36.2793H102.719V39.5343H105.974V36.2793Z" fill="#172E64"/>
<path d="M120.196 31H116.941V34.255H120.196V31Z" fill="#172E64"/>
<path d="M155.784 45.4153H152.146V38.4949H148.891V45.4153H145.171V40.6832H141.916V45.4153H133.409V36.2793H129.388C126.325 36.2793 124.246 38.3034 124.246 41.2302V45.4153H120.198V36.2793H116.943V45.4153H112.922V36.2793H109.667V45.4153H96.4276C95.0873 45.4153 94.4035 44.8409 94.4035 43.6373V37.5649H91.1484V43.5279C91.1484 46.5915 93.1452 48.6703 96.1267 48.6703H124.246V51.2415H128.157C130.236 51.2415 131.795 50.3936 132.78 48.6703H159.039V36.2793H155.784V45.4153ZM130.1 45.9624C130.1 47.3027 129.525 47.9592 128.322 47.9592H127.501V41.5311C127.501 40.1908 128.075 39.5343 129.279 39.5343H130.1V45.9624Z" fill="#172E64"/>
<path d="M164.778 31H161.523V48.6702H164.778V31Z" fill="#172E64"/>
<path d="M25.6951 59.168L21.3405 64.6824V69.2559H19.3711V64.7426L15 59.168H17.6095L20.4925 63.0357L23.392 59.168H25.6897H25.6951Z" fill="#172E64"/>
<path d="M35.9423 69.2559H33.7431L32.731 67.0457H27.4026L26.4233 69.2559H24.4648L29.2243 59.168H31.1172L35.9423 69.2559ZM31.9159 65.2295L30.1051 61.1265L28.2287 65.2295H31.9104H31.9159Z" fill="#172E64"/>
<path d="M48.8312 69.2563H47.0204V62.9814C47.0204 62.7626 47.0423 62.4125 47.086 61.9475C46.9876 62.1936 46.8234 62.5492 46.5991 63.0033L43.4371 68.0472H43.0487L39.8866 62.9869C39.6569 62.6203 39.4928 62.2757 39.3833 61.9529C39.4162 62.3578 39.4326 62.6915 39.4326 62.9486V69.2617H37.8516V59.1738H39.4326L43.3933 65.2736L47.272 59.1738H48.8366V69.2617L48.8312 69.2563Z" fill="#172E64"/>
<path d="M61.6728 69.2559H59.4735L58.4615 67.0457H53.1331L52.1538 69.2559H50.1953L54.9548 59.168H56.8476L61.6728 69.2559ZM57.6463 65.2295L55.8356 61.1265L53.9591 65.2295H57.6409H57.6463Z" fill="#172E64"/>
<path d="M74.0109 69.2563H72.2001V62.9814C72.2001 62.7626 72.222 62.4125 72.2657 61.9475C72.1672 62.1936 72.0031 62.5492 71.7788 63.0033L68.6168 68.0472H68.2284L65.0663 62.9869C64.8366 62.6203 64.6724 62.2757 64.563 61.9529C64.5959 62.3578 64.6123 62.6915 64.6123 62.9486V69.2617H63.0312V59.1738H64.6123L68.573 65.2736L72.4517 59.1738H74.0163V69.2617L74.0109 69.2563Z" fill="#172E64"/>
<path d="M86.8524 69.2559H84.6532L83.6412 67.0457H78.3127L77.3335 69.2559H75.375L80.1345 59.168H82.0273L86.8524 69.2559ZM82.826 65.2295L81.0152 61.1265L79.1388 65.2295H82.8206H82.826Z" fill="#172E64"/>
<path d="M103.527 66.8707C103.527 67.8061 103.379 68.4407 103.078 68.769C102.777 69.0972 102.236 69.2559 101.442 69.2559H96.4203C95.627 69.2559 95.0799 69.0917 94.7845 68.769C94.4836 68.4407 94.3359 67.8116 94.3359 66.8707V61.5532C94.3359 60.6122 94.4836 59.9831 94.7845 59.6549C95.0854 59.3266 95.627 59.168 96.4203 59.168H101.442C102.443 59.168 103.062 59.447 103.302 60.0104C103.456 60.3387 103.532 61.1702 103.532 62.5105H101.579V60.9678H96.2999V67.3575H101.579V65.6781H103.532V66.8707H103.527Z" fill="#172E64"/>
<path d="M115.516 69.2559H106.828V59.168H115.433V60.8858H108.781V63.1342H112.66V64.852H108.781V67.3521H115.51V69.2504L115.516 69.2559Z" fill="#172E64"/>
<path d="M128.909 69.2563H127.099V62.9814C127.099 62.7626 127.12 62.4125 127.164 61.9475C127.066 62.1936 126.902 62.5492 126.677 63.0033L123.515 68.0472H123.127L119.965 62.9869C119.735 62.6203 119.571 62.2757 119.461 61.9529C119.494 62.3578 119.511 62.6915 119.511 62.9486V69.2617H117.93V59.1738H119.511L123.471 65.2736L127.35 59.1738H128.915V69.2617L128.909 69.2563Z" fill="#172E64"/>
<path d="M140.004 69.2559H131.316V59.168H139.922V60.8858H133.269V63.1342H137.148V64.852H133.269V67.3521H139.998V69.2504L140.004 69.2559Z" fill="#172E64"/>
<path d="M152.856 69.2559H151.521L145.345 63.0193C145.082 62.7567 144.852 62.4832 144.644 62.1987C144.699 62.8497 144.726 63.364 144.726 63.7414V69.2559H142.965V59.168H144.3L150.219 65.1091C150.64 65.5413 150.963 65.9023 151.182 66.2032C151.127 65.2678 151.1 64.6879 151.1 64.4636V59.168H152.861V69.2559H152.856Z" fill="#172E64"/>
<path d="M164.999 60.9678H161.12V69.2559H159.167V60.9678H155.305V59.168H165.004V60.9678H164.999Z" fill="#172E64"/>
</g>
<defs>
<clipPath id="clip0_1096_1476">
<rect width="150" height="38.2563" fill="white" transform="translate(15 31)"/>
</clipPath>
</defs>
</svg>
