<?xml version="1.0" encoding="UTF-8"?><!DOCTYPE svg PUBLIC "-//W3C//DTD SVG 1.1//EN" "http://www.w3.org/Graphics/SVG/1.1/DTD/svg11.dtd"><svg xmlns="http://www.w3.org/2000/svg" xmlns:xlink="http://www.w3.org/1999/xlink"><defs><linearGradient id="shipment-a" x1="110" y1="126" x2="110.103" y2="165.501" gradientUnits="userSpaceOnUse"><stop stop-color="#FF6340" stop-opacity="0"/><stop offset=".5" stop-color="#FF6340"/><stop offset="1" stop-color="#FF6340" stop-opacity="0"/></linearGradient><linearGradient id="shipment-b" x1="112" y1="126" x2="111.779" y2="149.498" gradientUnits="userSpaceOnUse"><stop stop-color="#FF6340" stop-opacity="0"/><stop offset=".5" stop-color="#FF6340"/><stop offset="1" stop-color="#FF6340" stop-opacity="0"/></linearGradient><linearGradient id="shipment-c" x1="110.5" y1="126" x2="110.356" y2="142.499" gradientUnits="userSpaceOnUse"><stop stop-color="#FF6340" stop-opacity="0"/><stop offset=".5" stop-color="#FF6340"/><stop offset="1" stop-color="#FF6340" stop-opacity="0"/></linearGradient><linearGradient id="shipment-d" x1="112" y1="124" x2="111.682" y2="160.997" gradientUnits="userSpaceOnUse"><stop stop-color="#FF6340" stop-opacity="0"/><stop offset=".5" stop-color="#FF6340"/><stop offset="1" stop-color="#FF6340" stop-opacity="0"/></linearGradient><linearGradient id="shipment-e" x1="116" y1="126" x2="114.689" y2="182.993" gradientUnits="userSpaceOnUse"><stop stop-color="#FF6340" stop-opacity="0"/><stop offset=".5" stop-color="#FF6340"/><stop offset="1" stop-color="#FF6340" stop-opacity="0"/></linearGradient><linearGradient id="shipment-f" x1="112" y1="126" x2="112.174" y2="224" gradientUnits="userSpaceOnUse"><stop stop-color="#FF6340" stop-opacity="0"/><stop offset=".5" stop-color="#FF6340"/><stop offset="1" stop-color="#FF6340" stop-opacity="0"/></linearGradient><linearGradient id="shipment-g" x1="109" y1="126" x2="109.513" y2="198" gradientUnits="userSpaceOnUse"><stop stop-color="#FF6340" stop-opacity="0"/><stop offset=".5" stop-color="#FF6340"/><stop offset="1" stop-color="#FF6340" stop-opacity="0"/></linearGradient><linearGradient id="shipment-h" x1="97.5" y1="126" x2="97" y2="209.5" gradientUnits="userSpaceOnUse"><stop stop-color="#FF6340" stop-opacity="0"/><stop offset=".5" stop-color="#FF6340"/><stop offset="1" stop-color="#FF6340" stop-opacity="0"/></linearGradient></defs><symbol id="accordion-collapse" viewBox="0 0 14 14"><g fill="none"><path display="var(--is-visible--md-up)" stroke="currentColor" d="M0 6.5h14"/><path display="var(--is-visible--sm-down)" stroke="currentColor" d="M1 6.5h12"/></g></symbol><symbol id="accordion-expand" viewBox="0 0 14 14"><g fill="none"><path display="var(--is-visible--md-up)" d="M0 7h4a3 3 0 0 0 3-3V0M14 7h-4a3 3 0 0 0-3 3v4" stroke="currentColor"/><path display="var(--is-visible--sm-down)" d="M1 7h3a3 3 0 0 0 3-3V1M13 7h-3a3 3 0 0 0-3 3v3" stroke="currentColor"/></g></symbol><symbol id="accordion" viewBox="0 0 14 7"><g fill="none"><path d="m2 2 5.25 3.333L12.5 2" stroke="currentColor"/></g></symbol><symbol id="arrow-down" viewBox="0 0 14 7"><g fill="none"><path display="var(--is-visible--xl-down)" d="m3.001 2.167 4 3.2 4-3.2" stroke="currentColor"/><path display="var(--is-visible--xxl-up)" d="m1 1 6 4.8L13 1" stroke="currentColor"/></g></symbol><symbol id="arrow-left-lg" viewBox="0 0 7 14"><g fill="none"><path display="var(--is-visible--lg-down)" d="m5.25 12-4-5 4-5" stroke="currentColor"/><path display="var(--is-visible--xl-up)" d="M6 13 1.2 7 6 1" stroke="currentColor"/></g></symbol><symbol id="arrow-left" viewBox="0 0 7 14"><g fill="none"><path display="var(--is-visible--xl-down)" d="m5.25 12-4-5 4-5" stroke="currentColor"/><path display="var(--is-visible--xxl-up)" d="M6 13 1.2 7 6 1" stroke="currentColor"/></g></symbol><symbol id="arrow-right-lg" viewBox="0 0 7 14"><g fill="none"><path display="var(--is-visible--lg-down)" d="m1.75 12 4-5-4-5" stroke="currentColor"/><path display="var(--is-visible--xl-up)" d="m1 13 4.8-6L1 1" stroke="currentColor"/></g></symbol><symbol id="arrow-right" viewBox="0 0 7 14"><g fill="none"><path display="var(--is-visible--xl-down)" d="m1.75 12 4-5-4-5" stroke="currentColor"/><path display="var(--is-visible--xxl-up)" d="m1 13 4.8-6L1 1" stroke="currentColor"/></g></symbol><symbol id="arrow-up" viewBox="0 0 14 7"><g fill="none"><path display="var(--is-visible--xl-down)" d="m3.002 4.834 4-3.2 4 3.2" stroke="currentColor"/><path display="var(--is-visible--xxl-up)" d="m1 6 6-4.8L13 6" stroke="currentColor"/></g></symbol><symbol id="breadcrumb" viewBox="0 0 9 8"><g fill="none"><path d="m1 7 7-6" stroke="currentColor"/></g></symbol><symbol id="close-small" viewBox="0 0 14 11"><g fill="none"><path d="M13.073 1.689 7.867 5.484l5.206 3.794-.59.809-5.466-3.985-.003.003-.003-.003-5.467 3.985-.294-.404-.295-.405L6.16 5.484.955 1.689l.295-.405.294-.404L7.01 4.864l.003-.002.003.002L12.483.88l.59.809Z" fill="currentColor"/></g></symbol><symbol id="dropdown" viewBox="0 0 14 7"><g fill="none"><path display="var(--is-visible--md-up)" d="m1 1 6 4.8L13 1" stroke="currentColor"/><path display="var(--is-visible--sm-down)" d="m2 1.5 5 4 5-4" stroke="currentColor"/></g></symbol><symbol id="example-arrow-left" viewBox="0 0 20 20"><g fill="none"><path d="m12 16-6-6 6-6" stroke="currentColor" stroke-width="2" stroke-linecap="round" stroke-linejoin="round"/></g></symbol><symbol id="example-arrow" viewBox="0 0 20 20"><g fill="none"><path d="m8 4 6 6-6 6" stroke="currentColor" stroke-width="2" stroke-linecap="round" stroke-linejoin="round" fill="none"/></g></symbol><symbol id="example-close" viewBox="0 0 40 40"><g fill="none"><path display="var(--is-visible--sm-down)" d="M26 14 14 26m0-12 12 12" fill="none" stroke="currentColor" stroke-width="1.2"/><path display="var(--is-visible--md-up)" d="M25 15 15 25m0-10 10 10" fill="none" stroke="currentColor" stroke-width="1.2"/></g></symbol><symbol id="example-favourite" viewBox="0 0 20 20"><g fill="none"><path display="var(--is-visible--md-up)" fill="none" d="M16.188 5.2a3.781 3.781 0 0 0-5.531 0 4.084 4.084 0 0 0-.656.955 4.057 4.057 0 0 0-.657-.955 3.784 3.784 0 0 0-5.531 0 4.247 4.247 0 0 0 0 5.801l6.188 6.332 6.187-6.33a4.24 4.24 0 0 0 0-5.803Z" stroke="currentColor" stroke-linecap="round" stroke-linejoin="round"/><path display="var(--is-visible--sm-down)" fill="none" d="M14.64 6.4a2.835 2.835 0 0 0-4.147 0 3.064 3.064 0 0 0-.492.716 3.041 3.041 0 0 0-.493-.716 2.838 2.838 0 0 0-4.148 0 3.185 3.185 0 0 0 0 4.35L10 15.5l4.64-4.748a3.18 3.18 0 0 0 0-4.352Z" stroke="currentColor" stroke-linecap="round" stroke-linejoin="round"/></g></symbol><symbol id="example-password-hide" viewBox="0 0 16 16"><g fill="none"><path stroke="currentColor" fill="none" stroke-linecap="square" stroke-miterlimit="10" stroke-width="1.5" d="M13.558 6.68c.714.728 1.108 1.32 1.108 1.32S12 12 8 12c-.344 0-.677-.03-1-.083m-2.855-1.174A11.116 11.116 0 0 1 1.333 8S4 4 8 4c1.196 0 2.272.358 3.194.859"/><path stroke="currentColor" fill="none" stroke-linecap="square" stroke-miterlimit="10" stroke-width="1.5" d="M10.398 5.5A2.667 2.667 0 1 0 6.5 8.872"/><path stroke="currentColor" fill="none" stroke-width="1.5" d="M2 13 14 3"/></g></symbol><symbol id="example-password" viewBox="0 0 16 16"><g fill="none"><path stroke="currentColor" fill="none" stroke-linecap="square" stroke-miterlimit="10" stroke-width="1.5" d="M1.333 8S4 4 8 4s6.666 4 6.666 4S12 12 8 12 1.333 8 1.333 8Z"/><path stroke="currentColor" fill="none" stroke-linecap="square" stroke-miterlimit="10" stroke-width="1.5" d="M8 9.333A2.667 2.667 0 1 0 8 4a2.667 2.667 0 0 0 0 5.333Z"/></g></symbol><symbol id="example-zoom-in" viewBox="0 0 24 24"><g fill="none"><rect x="9" y="1" width="6" height="22" rx="2" fill="currentColor"/><rect x="1" y="15" width="6" height="22" rx="2" transform="rotate(-90 1 15)" fill="currentColor"/></g></symbol><symbol id="example-zoom-out" viewBox="0 0 24 24"><g fill="none"><rect x="1" y="15" width="6" height="22" rx="2" transform="rotate(-90 1 15)" fill="currentColor"/></g></symbol><symbol id="form-error" viewBox="0 0 12 12"><g fill="none"><path d="m2 2 8.5 8.5m0-8.5L2 10.5" stroke="currentColor" fill="none"/></g></symbol><symbol id="form-success" viewBox="0 0 12 12"><g fill="none"><path d="m11.5 2-8 8-3-3" stroke="currentColor" fill="none"/></g></symbol><symbol id="info-close" viewBox="0 0 10 10"><g fill="none"><path d="m1 9 2.857-2.857m2.286-2.286L9 1m0 8L6.143 6.143M3.857 3.857 1 1" stroke="currentColor"/></g></symbol><symbol id="info" viewBox="0 0 7 12"><g fill="none"><circle cx="3.048" cy="1.143" r="1.143" fill="currentColor"/><path stroke="currentColor" d="M0 11.5h1.676M0 4.571h1.948a1.1 1.1 0 0 1 1.1 1.1v4.658a1.1 1.1 0 0 0 1.1 1.1h1.947"/></g></symbol><symbol id="logo" viewBox="0 0 152 30"><g fill="none"><g display="var(--is-visible--xxxl)"><path fill-rule="evenodd" clip-rule="evenodd" d="M7.99 5.005h4.2A13.918 13.918 0 0 1 21.975.998c7.724 0 13.985 6.276 13.985 14.019 0 7.742-6.26 14.018-13.985 14.018-3.81 0-7.264-1.53-9.785-4.006h-4.2v-4.007h5.991a9.963 9.963 0 0 0 7.99 4.007c5.514 0 9.988-4.48 9.988-10.012S27.485 5.005 21.971 5.005a9.952 9.952 0 0 0-7.99 4.006H0V5.005h7.99Z" fill="#FF6340"/><path fill-rule="evenodd" clip-rule="evenodd" d="M12.186 13.013h11.783v4.003H3.997v-4.003h8.189Z" fill="#FF6340"/><path fill-rule="evenodd" clip-rule="evenodd" d="M145.183 4.61h-6.691v4.692h6.691c1.112 0 2.841 0 2.841-2.331 0-2.332-1.729-2.357-2.841-2.357m5.233-1.99c1.003 1.042 1.58 2.535 1.58 4.342 0 1.31-.303 2.452-.854 3.375a5.11 5.11 0 0 1-2.331 2.07l2.687 4.704.071.125h-4.677l-.025-.041-2.368-4.26h-6.007v4.301h-3.977V.97h11.726c1.716 0 3.159.598 4.175 1.653ZM121.542 4.31l-2.898 6.255h5.775l-2.877-6.255Zm10.224 12.933H127.5l-.021-.05-1.567-3.378h-8.765l-1.567 3.378-.021.05h-4.374l.058-.116 7.641-16.113.025-.046h5.249l.021.046 7.662 16.109.058.116h-.133v.004Zm-35.305-3.64h5.424c1.422 0 2.612-.162 3.441-.807.825-.64 1.302-1.766 1.302-3.69s-.477-3.05-1.302-3.69c-.829-.64-2.019-.807-3.441-.807h-5.424v8.994ZM92.568.969h10.755c2.053 0 3.977.736 5.332 2.249 1.199 1.342 1.949 3.291 1.949 5.889 0 2.597-.75 4.546-1.949 5.889-1.355 1.517-3.275 2.248-5.332 2.248H92.485V.97h.083ZM79.512 4.311l-2.898 6.255h5.775L79.512 4.31Zm10.224 12.933H85.47l-.02-.05-1.568-3.378h-8.765l-1.563 3.378-.021.05h-4.374l.053-.116 7.642-16.113.02-.046h5.25l.02.046 7.663 16.109.058.116h-.133l.004.004ZM61.31.97h5.228v16.275h-3.976V6.434l-6.004 10.769-.025.041h-2.848l-.025-.041-6.004-10.769v10.81H43.68V.97h5.274l.025.042 6.132 11.238L61.24 1.01l.025-.042h.05-.004Z" fill="currentColor"/><path d="M108.531 23.566c.489 0 .875.141 1.161.424.286.282.427.702.427 1.263v2.236h-.701v-2.157c0-.378-.087-.66-.261-.852-.174-.191-.423-.287-.742-.287-.356 0-.638.112-.85.333-.211.224-.315.54-.315.956v2.003h-.705v-2.157c0-.378-.087-.661-.261-.852-.174-.191-.419-.287-.742-.287-.357 0-.639.112-.85.333-.212.224-.315.54-.315.956v2.003h-.705v-3.89h.672v.577c.14-.2.327-.353.555-.457a1.87 1.87 0 0 1 .784-.158c.294 0 .572.063.804.183.232.12.415.3.543.536a1.49 1.49 0 0 1 .61-.528c.261-.128.555-.19.883-.19m-7.119.702c.12-.225.303-.395.543-.516.24-.116.531-.174.871-.174v.681a1.473 1.473 0 0 0-.162-.008c-.381 0-.68.112-.896.34-.215.23-.327.553-.327.973v1.937h-.705v-3.89h.672v.652l.004.005Zm-3.661 2.66c.249 0 .472-.059.667-.17a1.22 1.22 0 0 0 .465-.487c.112-.208.17-.445.17-.715 0-.27-.054-.507-.17-.715a1.182 1.182 0 0 0-.465-.482 1.34 1.34 0 0 0-.667-.17c-.245 0-.473.058-.672.17a1.218 1.218 0 0 0-.468.482c-.116.208-.17.445-.17.715 0 .27.058.507.17.715.116.208.27.37.468.486.2.116.423.17.672.17Zm0 .619c-.386 0-.734-.088-1.04-.258a1.873 1.873 0 0 1-.722-.707c-.174-.299-.262-.64-.262-1.022s.088-.723.262-1.022c.174-.3.414-.536.721-.703a2.11 2.11 0 0 1 1.04-.253c.386 0 .73.083 1.037.253.303.17.544.404.718.703.174.299.26.64.26 1.022 0 .383-.086.723-.26 1.023a1.89 1.89 0 0 1-.718.706c-.306.17-.65.258-1.036.258Zm-2.766-4.954c-.419 0-.63.228-.63.681v.337h1.128v.578h-1.111v3.308h-.705v-3.308h-.66v-.578h.66v-.345c0-.387.112-.694.336-.919.224-.224.539-.336.945-.336.157 0 .303.02.44.058.136.038.252.096.352.17l-.212.537a.883.883 0 0 0-.543-.183Zm-2.272 4.68a1.112 1.112 0 0 1-.381.203c-.154.046-.307.07-.469.07-.39 0-.692-.103-.908-.315-.216-.212-.323-.511-.323-.902v-2.136h-.66v-.578h.66v-.852h.705v.852h1.11v.578h-1.11v2.107c0 .212.053.37.157.486.104.112.257.17.452.17a.845.845 0 0 0 .547-.182l.22.507v-.009Zm-5.307-.27c.27 0 .502-.059.697-.18.194-.12.335-.29.422-.51v-.545h-1.082c-.597 0-.891.2-.891.603 0 .195.075.349.228.46.15.113.36.171.63.171h-.004Zm.162-3.425c.534 0 .95.133 1.231.395.286.266.427.656.427 1.18v2.348h-.667v-.515c-.117.183-.287.32-.502.415a1.895 1.895 0 0 1-.771.142c-.436 0-.784-.104-1.045-.316a1.012 1.012 0 0 1-.39-.827c0-.341.124-.62.373-.827.25-.208.643-.312 1.186-.312h1.111v-.141c0-.304-.087-.537-.265-.699-.174-.162-.435-.24-.775-.24-.228 0-.452.037-.672.111-.22.075-.406.18-.556.304l-.294-.528c.199-.162.44-.287.717-.37.278-.087.572-.129.887-.129l.005.009Zm-3.454-1.521h.705v5.444h-.705v-5.444Zm-3.205 3.25c.464 0 .817-.1 1.061-.3.245-.2.365-.482.365-.856s-.124-.656-.365-.856c-.244-.2-.597-.3-1.061-.3h-1.244v2.303h1.244v.009Zm.02-2.943c.664 0 1.186.158 1.568.478.381.316.572.757.572 1.313 0 .557-.19.998-.572 1.314-.382.316-.904.478-1.567.478h-1.265v1.554h-.734v-5.137h1.999Zm-6.625 5.183c-.32 0-.622-.042-.916-.13-.295-.086-.523-.195-.689-.328l.295-.556c.17.12.377.22.622.295.244.075.489.112.738.112.613 0 .92-.175.92-.528a.34.34 0 0 0-.124-.278.777.777 0 0 0-.311-.15 7.648 7.648 0 0 0-.53-.108 4.86 4.86 0 0 1-.764-.17 1.167 1.167 0 0 1-.51-.325c-.14-.153-.211-.365-.211-.64 0-.353.145-.636.44-.847.294-.212.683-.32 1.177-.32.257 0 .518.033.775.095a2 2 0 0 1 .635.258l-.299.557a2.038 2.038 0 0 0-1.12-.308c-.298 0-.522.05-.68.146-.157.1-.236.228-.236.39 0 .13.046.229.133.3a.792.792 0 0 0 .323.162c.129.033.311.074.548.116.31.054.563.112.758.17.191.063.357.167.494.312.136.145.203.353.203.615 0 .353-.15.632-.452.84-.299.207-.71.311-1.227.311l.008.009Zm-3.599 0c-.394 0-.746-.088-1.057-.258a1.895 1.895 0 0 1-.73-.707c-.174-.299-.265-.64-.265-1.022s.087-.723.265-1.022c.174-.3.419-.536.73-.703.31-.17.663-.253 1.057-.253.352 0 .663.07.941.212.278.141.49.349.639.615l-.535.345a1.21 1.21 0 0 0-.452-.42 1.321 1.321 0 0 0-.601-.141c-.253 0-.481.058-.684.17-.203.112-.361.274-.477.482-.116.208-.17.445-.17.715 0 .27.058.516.17.723.116.208.273.37.477.482.203.113.43.17.684.17.22 0 .419-.045.6-.14.18-.092.333-.233.453-.42l.535.336a1.53 1.53 0 0 1-.639.62 1.977 1.977 0 0 1-.941.216Zm-3.383-4.684a.473.473 0 0 1-.34-.133.43.43 0 0 1-.137-.324c0-.13.045-.237.137-.329a.459.459 0 0 1 .34-.137c.137 0 .249.042.34.13a.421.421 0 0 1 .136.32.456.456 0 0 1-.136.332.459.459 0 0 1-.34.137v.004Zm-.353.748h.705v3.89h-.705v-3.89Zm-.846 3.661a1.114 1.114 0 0 1-.381.204c-.15.046-.307.07-.468.07-.39 0-.693-.103-.909-.315-.215-.212-.323-.511-.323-.902v-2.136h-.66v-.578h.66v-.852h.705v.852h1.111v.578H64.74v2.107c0 .212.054.37.157.486.104.112.258.17.452.17a.845.845 0 0 0 .548-.182l.22.507v-.009Zm-4.739.275a3.19 3.19 0 0 1-.916-.13c-.294-.086-.522-.195-.688-.328l.294-.556c.17.12.377.22.622.295.245.075.49.112.738.112.614 0 .92-.175.92-.528a.34.34 0 0 0-.124-.278.776.776 0 0 0-.31-.15 7.648 7.648 0 0 0-.532-.108 4.86 4.86 0 0 1-.762-.17 1.167 1.167 0 0 1-.51-.325c-.141-.153-.212-.365-.212-.64 0-.353.145-.636.44-.847.294-.212.684-.32 1.177-.32a3.3 3.3 0 0 1 .776.095 2 2 0 0 1 .634.258l-.299.557a2.028 2.028 0 0 0-1.12-.308c-.298 0-.521.05-.68.146-.157.1-.235.228-.235.39 0 .13.045.229.132.3a.783.783 0 0 0 .328.162c.128.033.31.074.547.116.311.054.564.112.759.17.19.063.356.167.493.312s.203.353.203.615c0 .353-.149.632-.452.84-.298.207-.708.311-1.227.311l.004.009Zm-2.802-4.684a.473.473 0 0 1-.34-.133.43.43 0 0 1-.137-.324c0-.13.045-.237.136-.329a.459.459 0 0 1 .34-.137c.137 0 .25.042.34.13a.421.421 0 0 1 .137.32.456.456 0 0 1-.136.332.459.459 0 0 1-.34.137v.004Zm-.353.748h.705v3.89h-.705v-3.89Zm-3.358 3.113c.253 0 .48-.054.684-.162.203-.108.36-.258.477-.453.116-.192.174-.412.174-.657 0-.378-.125-.681-.373-.914-.25-.233-.568-.35-.958-.35s-.717.117-.966.35c-.249.233-.373.536-.373.914 0 .245.058.465.17.657.116.19.273.345.476.453.204.108.432.162.693.162h-.004Zm2.019-3.113v3.362c0 .682-.17 1.185-.506 1.509-.336.324-.837.486-1.51.486a3.66 3.66 0 0 1-1.048-.15 2.086 2.086 0 0 1-.804-.428l.335-.544c.183.158.403.278.672.37.265.091.539.137.825.137.452 0 .788-.108 1.008-.324.215-.216.323-.545.323-.985v-.308c-.166.2-.369.35-.61.453-.24.1-.505.15-.787.15-.37 0-.705-.08-1.008-.237a1.764 1.764 0 0 1-.705-.67 1.88 1.88 0 0 1-.257-.98c0-.37.087-.694.257-.98.17-.288.407-.508.705-.666a2.12 2.12 0 0 1 1.008-.233c.294 0 .564.055.816.163a1.5 1.5 0 0 1 .618.478v-.603h.668Zm-6.696 3.317c.248 0 .472-.059.667-.17a1.22 1.22 0 0 0 .465-.487c.112-.208.17-.445.17-.715 0-.27-.054-.507-.17-.715a1.209 1.209 0 0 0-.465-.482 1.34 1.34 0 0 0-.667-.17c-.245 0-.473.058-.672.17-.199.112-.352.274-.469.482-.116.208-.17.445-.17.715 0 .27.059.507.17.715.117.208.27.37.47.486.198.116.422.17.67.17Zm0 .619c-.386 0-.734-.088-1.041-.258a1.873 1.873 0 0 1-.721-.707c-.175-.299-.262-.64-.262-1.022s.087-.723.262-1.022c.174-.3.414-.536.721-.703a2.11 2.11 0 0 1 1.04-.253c.386 0 .73.083 1.037.253.307.17.544.404.718.703.174.299.26.64.26 1.022 0 .383-.086.723-.26 1.023a1.89 1.89 0 0 1-.718.706c-.306.17-.65.258-1.036.258Zm-5.855-5.183h.734v4.497h2.774v.64h-3.508v-5.137Z" fill="currentColor"/></g><g display="var(--is-visible--xxl)"><path fill-rule="evenodd" clip-rule="evenodd" d="M17.833 6.451h3.593a11.904 11.904 0 0 1 8.368-3.426c6.607 0 11.961 5.367 11.961 11.99 0 6.621-5.354 11.989-11.96 11.989a11.904 11.904 0 0 1-8.37-3.427h-3.592V20.15h5.124a8.521 8.521 0 0 0 6.834 3.427c4.716 0 8.542-3.832 8.542-8.563 0-4.73-3.826-8.563-8.542-8.563a8.511 8.511 0 0 0-6.834 3.427H11V6.451h6.833Z" fill="#FF6340"/><path fill-rule="evenodd" clip-rule="evenodd" d="M21.422 13.3H31.5v3.424H14.418V13.3H21.422Z" fill="#FF6340"/><path fill-rule="evenodd" clip-rule="evenodd" d="M135.171 6.114h-5.723v4.013h5.723c.951 0 2.43 0 2.43-1.994s-1.479-2.016-2.43-2.016m4.476-1.702c.858.892 1.351 2.168 1.351 3.714 0 1.12-.259 2.097-.731 2.886a4.364 4.364 0 0 1-1.993 1.77l2.298 4.024.06.107h-4l-.021-.036-2.025-3.643h-5.138v3.679h-3.401V3h10.029c1.468 0 2.702.512 3.571 1.415Zm-24.695 1.443-2.479 5.35h4.94l-2.461-5.35Zm8.744 11.061h-3.649l-.017-.042-1.341-2.89h-7.496l-1.34 2.89-.018.042h-3.742l.05-.1 6.536-13.78L112.7 3h4.489l.018.04 6.553 13.776.05.1h-.114v.003Zm-30.195-3.113h4.638c1.217 0 2.235-.139 2.944-.69.705-.547 1.113-1.51 1.113-3.156 0-1.646-.408-2.61-1.113-3.157-.71-.547-1.727-.69-2.944-.69h-4.638v7.693ZM90.171 3h9.199c1.755 0 3.4.63 4.56 1.923 1.025 1.148 1.667 2.815 1.667 5.037 0 2.221-.642 3.888-1.667 5.036-1.16 1.298-2.801 1.923-4.56 1.923H90.1V3h.071ZM79.005 5.858l-2.479 5.35h4.94l-2.461-5.35Zm8.744 11.061h-3.648l-.018-.042-1.34-2.89h-7.497l-1.337 2.89-.018.042h-3.74l.045-.1 6.536-13.78.017-.039h4.49l.017.04 6.554 13.776.05.1h-.114l.003.003ZM63.437 3h4.472v13.92h-3.4V7.673l-5.135 9.21-.022.035h-2.436l-.021-.035-5.135-9.21v9.245h-3.4V3h4.51l.021.036 5.245 9.61 5.241-9.61.021-.036h.043-.004Z" fill="currentColor"/><path d="M103.822 22.326c.418 0 .748.12.993.362s.365.601.365 1.081v1.912h-.6v-1.845c0-.323-.074-.565-.223-.728-.149-.164-.361-.245-.634-.245-.305 0-.546.096-.727.284-.181.192-.27.462-.27.818v1.713h-.603v-1.845c0-.323-.074-.565-.223-.729-.15-.163-.358-.245-.635-.245-.305 0-.546.096-.727.284-.18.192-.27.462-.27.818v1.713h-.602v-3.327h.574v.494c.12-.17.28-.302.476-.39.195-.09.418-.136.67-.136.252 0 .49.053.688.157.198.103.354.255.464.458.124-.192.298-.341.522-.451.223-.11.475-.164.755-.164m-6.089.6c.103-.191.259-.337.465-.44.205-.1.454-.15.744-.15v.584a1.237 1.237 0 0 0-.138-.007c-.326 0-.581.096-.766.291-.184.196-.28.473-.28.832v1.656h-.603v-3.327h.575v.558l.003.004Zm-3.131 2.276c.213 0 .404-.05.57-.146.171-.1.302-.238.398-.416.096-.178.145-.38.145-.611 0-.231-.046-.434-.145-.612a1.01 1.01 0 0 0-.397-.412 1.146 1.146 0 0 0-.571-.146c-.21 0-.404.05-.575.146-.17.096-.301.235-.4.412-.1.178-.146.38-.146.612 0 .23.05.433.146.611.099.178.23.316.4.416.17.1.362.146.575.146Zm0 .53c-.33 0-.628-.075-.89-.221a1.602 1.602 0 0 1-.617-.604 1.706 1.706 0 0 1-.224-.875c0-.327.075-.618.224-.874a1.57 1.57 0 0 1 .617-.6c.262-.146.56-.218.89-.218.33 0 .624.072.886.217.26.146.465.345.614.6.149.257.223.548.223.875 0 .327-.074.619-.223.875a1.616 1.616 0 0 1-.614.604c-.262.146-.556.22-.886.22Zm-2.365-4.238c-.359 0-.54.196-.54.583v.288h.965v.494h-.95v2.83h-.603v-2.83h-.564v-.494h.564v-.295c0-.33.096-.593.287-.785.192-.192.461-.288.809-.288.135 0 .259.018.376.05a.88.88 0 0 1 .301.145l-.18.459a.755.755 0 0 0-.465-.157Zm-1.944 4.003a.953.953 0 0 1-.326.174c-.131.04-.262.06-.4.06-.334 0-.593-.088-.777-.27-.184-.181-.277-.437-.277-.771v-1.827h-.564v-.494h.564v-.729h.603v.729h.95v.494h-.95v1.802c0 .181.046.316.135.416.088.096.22.146.386.146.185 0 .34-.054.469-.157l.187.434v-.007Zm-4.539-.231c.23 0 .43-.05.596-.153a.879.879 0 0 0 .362-.437v-.466h-.926c-.51 0-.762.17-.762.515a.46.46 0 0 0 .195.395c.128.096.308.146.539.146h-.004Zm.139-2.93c.457 0 .812.115 1.053.338.245.228.365.562.365 1.01v2.008h-.57v-.44a.947.947 0 0 1-.43.355 1.62 1.62 0 0 1-.66.12c-.372 0-.67-.088-.893-.27a.865.865 0 0 1-.333-.707c0-.291.106-.53.319-.707.213-.178.55-.267 1.014-.267h.95v-.12c0-.26-.074-.459-.227-.598-.149-.138-.372-.206-.663-.206a1.77 1.77 0 0 0-.574.096 1.483 1.483 0 0 0-.475.26l-.252-.452c.17-.138.376-.245.613-.316.238-.075.49-.11.76-.11l.003.007Zm-2.954-1.3h.603v4.656h-.603v-4.656Zm-2.741 2.78c.397 0 .698-.086.907-.256.21-.171.313-.413.313-.733s-.107-.561-.313-.732c-.209-.17-.51-.256-.907-.256h-1.064v1.97h1.064v.007Zm.017-2.517c.568 0 1.015.135 1.34.409.327.27.49.647.49 1.123s-.163.853-.49 1.123c-.325.27-.772.409-1.34.409h-1.081v1.33h-.628v-4.394h1.71Zm-5.666 4.432c-.273 0-.532-.035-.784-.11a1.716 1.716 0 0 1-.589-.28l.252-.477c.145.103.323.188.532.252.21.064.418.096.631.096.525 0 .787-.149.787-.451a.29.29 0 0 0-.106-.238.663.663 0 0 0-.266-.128 6.54 6.54 0 0 0-.454-.093 4.156 4.156 0 0 1-.652-.145.998.998 0 0 1-.436-.277c-.12-.132-.181-.313-.181-.548 0-.302.124-.544.376-.725.251-.181.585-.274 1.007-.274.22 0 .443.029.663.082.22.053.404.128.542.22l-.255.477a1.742 1.742 0 0 0-.957-.263c-.256 0-.447.042-.582.124-.135.085-.202.196-.202.334 0 .11.039.196.113.256.075.064.167.11.277.139.11.028.266.064.468.1.266.046.482.095.65.145a.996.996 0 0 1 .421.267c.117.124.174.302.174.526 0 .302-.128.54-.387.718-.255.177-.606.266-1.05.266l.008.007Zm-3.078 0c-.337 0-.639-.074-.904-.22a1.62 1.62 0 0 1-.625-.604 1.709 1.709 0 0 1-.227-.875c0-.327.075-.618.227-.874.15-.256.358-.459.624-.6a1.85 1.85 0 0 1 .905-.218c.301 0 .567.06.805.182.237.12.418.298.546.526l-.458.295a1.034 1.034 0 0 0-.386-.36 1.13 1.13 0 0 0-.514-.12c-.217 0-.412.05-.585.146a1.036 1.036 0 0 0-.408.412c-.1.178-.146.38-.146.611 0 .231.05.441.146.619.099.177.234.316.407.412.174.096.37.146.586.146.188 0 .358-.04.514-.121.152-.078.284-.199.386-.359l.458.288a1.31 1.31 0 0 1-.546.53 1.692 1.692 0 0 1-.805.184Zm-2.894-4.005a.404.404 0 0 1-.29-.114.368.368 0 0 1-.118-.277c0-.11.04-.203.117-.281a.392.392 0 0 1 .291-.118.4.4 0 0 1 .29.11.36.36 0 0 1 .118.274.39.39 0 0 1-.117.285.392.392 0 0 1-.29.117v.004Zm-.301.64h.602v3.326h-.602v-3.327Zm-.724 3.13a.954.954 0 0 1-.326.175c-.128.04-.262.06-.4.06-.334 0-.593-.088-.777-.27-.185-.181-.277-.437-.277-.771v-1.827h-.564v-.494h.564v-.729h.603v.729h.95v.494h-.95v1.802c0 .181.046.316.135.416.088.096.22.146.386.146.185 0 .34-.054.468-.157l.188.434v-.007Zm-4.053.235c-.273 0-.532-.035-.784-.11a1.717 1.717 0 0 1-.588-.28l.252-.477c.145.103.322.188.531.252.21.064.419.096.632.096.525 0 .787-.149.787-.451 0-.1-.036-.181-.107-.238a.664.664 0 0 0-.266-.128 6.527 6.527 0 0 0-.453-.093 4.159 4.159 0 0 1-.653-.145.998.998 0 0 1-.436-.277c-.12-.132-.18-.313-.18-.548 0-.302.123-.544.375-.725.252-.181.585-.274 1.007-.274.22 0 .443.029.663.082.22.053.404.128.543.22l-.255.477a1.734 1.734 0 0 0-.958-.263c-.255 0-.447.042-.582.124-.134.085-.202.196-.202.334 0 .11.04.196.114.256.074.064.166.11.28.139.11.028.266.064.468.1.266.046.482.095.649.145a.996.996 0 0 1 .422.267c.117.124.174.302.174.526 0 .302-.128.54-.387.718-.255.177-.606.266-1.05.266l.004.007Zm-2.397-4.005a.404.404 0 0 1-.29-.114.368.368 0 0 1-.118-.277c0-.11.04-.203.117-.281a.392.392 0 0 1 .29-.118.4.4 0 0 1 .292.11.36.36 0 0 1 .117.274.39.39 0 0 1-.117.285.392.392 0 0 1-.291.117v.004Zm-.301.64h.602v3.326h-.602v-3.327Zm-2.873 2.662c.217 0 .412-.047.585-.139a1.02 1.02 0 0 0 .408-.387c.1-.164.149-.352.149-.562 0-.323-.106-.583-.32-.782-.212-.2-.485-.299-.818-.299-.334 0-.614.1-.826.299-.213.199-.32.459-.32.782 0 .21.05.398.146.562.099.163.234.295.408.387.173.092.368.139.592.139h-.004Zm1.727-2.663v2.876c0 .583-.145 1.013-.433 1.29-.287.277-.716.416-1.29.416a3.13 3.13 0 0 1-.897-.128 1.785 1.785 0 0 1-.688-.366l.287-.466c.156.135.344.239.574.317.227.078.461.117.706.117.387 0 .674-.093.862-.277.184-.185.276-.466.276-.843v-.263c-.142.17-.315.299-.521.388a1.75 1.75 0 0 1-.674.128c-.315 0-.603-.068-.861-.203a1.51 1.51 0 0 1-.603-.572 1.609 1.609 0 0 1-.22-.84c0-.315.074-.593.22-.838a1.5 1.5 0 0 1 .602-.569c.256-.135.543-.199.862-.199.252 0 .483.047.699.139.216.092.39.227.528.409v-.516h.571Zm-5.727 2.837c.213 0 .404-.05.571-.146.17-.1.302-.238.397-.416.096-.178.146-.38.146-.611 0-.231-.046-.434-.146-.612a1.034 1.034 0 0 0-.397-.412 1.146 1.146 0 0 0-.57-.146c-.21 0-.405.05-.575.146-.17.096-.302.235-.401.412-.1.178-.145.38-.145.612 0 .23.05.433.145.611.1.178.23.316.4.416.17.1.362.146.575.146Zm0 .53c-.33 0-.627-.075-.89-.221a1.601 1.601 0 0 1-.617-.604 1.706 1.706 0 0 1-.223-.875c0-.327.074-.618.223-.874.149-.256.355-.459.617-.6.263-.146.56-.218.89-.218.33 0 .624.072.887.217.262.146.464.345.613.6.15.257.224.548.224.875 0 .327-.075.619-.224.875a1.617 1.617 0 0 1-.613.604c-.263.146-.557.22-.887.22Zm-5.007-4.433h.628v3.846h2.372v.547h-3v-4.393Z" fill="currentColor"/></g><g display="var(--is-visible--xl-down)"><path fill-rule="evenodd" clip-rule="evenodd" d="M32.599 8.622h2.68a8.882 8.882 0 0 1 6.244-2.557c4.93 0 8.925 4.005 8.925 8.946 0 4.94-3.995 8.946-8.925 8.946A8.882 8.882 0 0 1 35.28 21.4h-2.68v-2.557h3.823a6.358 6.358 0 0 0 5.099 2.557c3.519 0 6.374-2.86 6.374-6.39S45.04 8.623 41.52 8.623a6.35 6.35 0 0 0-5.099 2.556H27.5V8.622h5.099Z" fill="#FF6340"/><path fill-rule="evenodd" clip-rule="evenodd" d="M35.276 13.732H42.797v2.555H30.051v-2.555H35.276Z" fill="#FF6340"/><path fill-rule="evenodd" clip-rule="evenodd" d="M120.15 8.37h-4.27v2.994h4.27c.71 0 1.813 0 1.813-1.488s-1.104-1.504-1.813-1.504m3.34-1.27c.64.666 1.007 1.618 1.007 2.772 0 .835-.193 1.564-.545 2.153a3.259 3.259 0 0 1-1.487 1.32l1.715 3.003.045.08h-2.985l-.016-.027-1.51-2.718h-3.834v2.745h-2.538V6.046h7.483c1.095 0 2.016.382 2.664 1.056Zm-18.427 1.077-1.85 3.991h3.686l-1.836-3.991Zm6.525 8.253h-2.723l-.013-.031-1-2.157h-5.594l-1 2.157-.013.031h-2.791l.037-.074 4.876-10.282.016-.03h3.35l.013.03 4.89 10.28.037.074h-.085v.002Zm-22.53-2.323h3.46c.908 0 1.668-.103 2.197-.514.526-.409.83-1.128.83-2.356s-.304-1.946-.83-2.355c-.53-.408-1.289-.514-2.196-.514h-3.461v5.74Zm-2.485-8.063h6.864c1.31 0 2.537.47 3.403 1.435.764.857 1.243 2.1 1.243 3.758s-.479 2.902-1.243 3.759c-.866.968-2.09 1.434-3.403 1.434H86.52V6.046h.053ZM78.241 8.18l-1.85 3.991h3.686L78.242 8.18Zm6.525 8.253h-2.723l-.013-.031-1-2.157h-5.594l-.997 2.157-.013.031h-2.792l.035-.074 4.876-10.282.013-.03h3.35l.013.03 4.89 10.28.037.074h-.085l.003.002ZM66.626 6.046h3.336v10.386h-2.537V9.534l-3.832 6.872-.016.026H61.76l-.016-.026-3.831-6.872v6.898h-2.538V6.046h3.366l.016.027 3.913 7.171 3.91-7.171.016-.027h.032-.002Z" fill="currentColor"/><path d="M96.76 20.467c.312 0 .558.09.741.27.183.18.273.449.273.807v1.427h-.448v-1.377c0-.241-.055-.422-.166-.544-.111-.122-.27-.183-.474-.183a.716.716 0 0 0-.542.212c-.135.144-.201.345-.201.61v1.279h-.45V21.59c0-.241-.056-.421-.167-.543-.111-.122-.267-.183-.473-.183a.716.716 0 0 0-.543.212c-.135.143-.201.345-.201.61v1.278h-.45v-2.482h.429v.368a.868.868 0 0 1 .354-.291c.146-.067.313-.101.5-.101.188 0 .366.04.514.117.148.076.264.19.346.342a.95.95 0 0 1 .39-.337c.166-.082.354-.122.563-.122m-4.543.448a.774.774 0 0 1 .346-.329c.154-.074.34-.111.556-.111v.435a.944.944 0 0 0-.103-.006c-.243 0-.434.072-.572.218-.137.146-.209.353-.209.62v1.236h-.45v-2.482h.43v.416l.002.003Zm-2.337 1.698a.842.842 0 0 0 .427-.11.778.778 0 0 0 .296-.31.944.944 0 0 0 .108-.456.916.916 0 0 0-.108-.456.754.754 0 0 0-.296-.308.855.855 0 0 0-.427-.108.865.865 0 0 0-.428.108.777.777 0 0 0-.3.308.916.916 0 0 0-.108.456c0 .173.037.324.109.457a.803.803 0 0 0 .299.31c.127.074.27.109.428.109Zm0 .395c-.246 0-.468-.056-.664-.165a1.197 1.197 0 0 1-.46-.45 1.274 1.274 0 0 1-.167-.653c0-.244.056-.462.167-.652a1.17 1.17 0 0 1 .46-.449c.196-.108.418-.162.665-.162.245 0 .465.053.661.162a1.2 1.2 0 0 1 .458.448c.11.191.166.409.166.653 0 .244-.055.461-.166.652-.111.191-.265.343-.458.451a1.338 1.338 0 0 1-.662.165Zm-1.764-3.162c-.268 0-.403.146-.403.435v.215h.72v.369h-.709v2.11h-.45v-2.11h-.42v-.369h.42v-.22c0-.247.072-.443.214-.586.143-.143.344-.215.604-.215.1 0 .193.013.28.037a.66.66 0 0 1 .225.109l-.135.342a.563.563 0 0 0-.346-.117Zm-1.45 2.987a.71.71 0 0 1-.244.13c-.098.029-.196.045-.299.045-.248 0-.442-.067-.58-.202-.137-.135-.206-.326-.206-.575v-1.364h-.42v-.368h.42v-.544h.45v.544h.71v.368h-.71v1.345c0 .135.035.236.1.31.067.072.165.11.29.11.137 0 .253-.04.348-.118l.14.324v-.005Zm-3.387-.173c.172 0 .32-.037.444-.114a.656.656 0 0 0 .27-.326v-.347h-.69c-.381 0-.57.127-.57.384 0 .125.048.223.146.295.096.071.23.108.403.108h-.003Zm.103-2.185c.341 0 .606.085.786.252.183.17.272.419.272.753v1.498h-.426v-.328a.706.706 0 0 1-.32.265c-.137.06-.301.09-.492.09-.278 0-.5-.066-.667-.201a.646.646 0 0 1-.248-.528c0-.218.079-.395.238-.528.159-.133.41-.199.757-.199h.709v-.09c0-.194-.056-.342-.17-.446-.11-.103-.278-.154-.495-.154-.145 0-.288.024-.428.072-.14.048-.26.114-.355.194l-.188-.337c.127-.104.28-.183.458-.236.177-.056.365-.082.566-.082l.003.005Zm-2.204-.97h.45v3.474h-.45v-3.475Zm-2.045 2.073c.296 0 .52-.063.677-.19.156-.128.233-.308.233-.547 0-.239-.08-.42-.233-.546-.156-.128-.381-.191-.677-.191h-.794v1.469h.794v.005Zm.013-1.878c.423 0 .757.101 1 .305.243.202.365.483.365.838 0 .356-.121.637-.365.839-.243.201-.577.305-1 .305h-.807v.992h-.468v-3.279h1.275ZM74.913 23c-.204 0-.397-.027-.585-.082a1.283 1.283 0 0 1-.44-.21l.189-.355a1.6 1.6 0 0 0 .868.26c.391 0 .587-.112.587-.337a.217.217 0 0 0-.08-.178.494.494 0 0 0-.198-.095 4.853 4.853 0 0 0-.339-.07 3.103 3.103 0 0 1-.487-.108.746.746 0 0 1-.325-.207c-.09-.098-.135-.233-.135-.409 0-.225.093-.405.28-.54.188-.136.437-.205.752-.205.164 0 .33.021.495.061.164.04.301.096.405.165l-.19.355a1.3 1.3 0 0 0-.715-.196c-.19 0-.334.032-.434.093-.1.063-.151.145-.151.249 0 .082.03.146.085.19a.506.506 0 0 0 .206.104c.082.022.199.048.35.075.198.034.36.071.484.108.121.04.227.106.314.2.088.092.13.225.13.392a.616.616 0 0 1-.288.535c-.19.133-.453.2-.784.2l.006.005Zm-2.297 0c-.251 0-.476-.056-.675-.165a1.21 1.21 0 0 1-.465-.45 1.275 1.275 0 0 1-.17-.653c0-.244.056-.462.17-.652.11-.191.267-.343.465-.449a1.38 1.38 0 0 1 .675-.162 1.3 1.3 0 0 1 .6.136c.178.09.313.223.408.392l-.341.22a.772.772 0 0 0-.289-.267.888.888 0 0 0-.82.019.773.773 0 0 0-.304.307.916.916 0 0 0-.109.456c0 .172.037.329.109.461a.773.773 0 0 0 .304.308c.13.072.275.109.437.109a.81.81 0 0 0 .383-.09.752.752 0 0 0 .289-.268l.341.215a.976.976 0 0 1-.407.395 1.263 1.263 0 0 1-.601.138Zm-2.16-2.99a.301.301 0 0 1-.216-.084.275.275 0 0 1-.087-.207c0-.082.029-.151.087-.21a.292.292 0 0 1 .217-.087c.087 0 .159.026.217.082a.27.27 0 0 1 .087.204.29.29 0 0 1-.087.213.293.293 0 0 1-.217.087v.003Zm-.224.478h.45v2.483h-.45v-2.483Zm-.54 2.337a.71.71 0 0 1-.243.13 1.02 1.02 0 0 1-.3.045c-.248 0-.441-.067-.579-.202-.137-.135-.206-.326-.206-.575v-1.364h-.42v-.368h.42v-.544h.45v.544h.709v.368h-.71v1.345c0 .135.035.236.101.31.067.072.164.11.289.11.137 0 .254-.04.349-.118l.14.324v-.005ZM66.668 23c-.204 0-.397-.027-.585-.082a1.282 1.282 0 0 1-.439-.21l.188-.355a1.6 1.6 0 0 0 .868.26c.391 0 .587-.112.587-.337a.217.217 0 0 0-.08-.178.493.493 0 0 0-.198-.095 4.877 4.877 0 0 0-.338-.07 3.1 3.1 0 0 1-.487-.108.746.746 0 0 1-.326-.207c-.09-.098-.135-.233-.135-.409 0-.225.093-.405.28-.54.189-.136.437-.205.752-.205.164 0 .331.021.495.061.164.04.302.096.405.165l-.19.355a1.295 1.295 0 0 0-.715-.196c-.19 0-.333.032-.434.093-.1.063-.15.145-.15.249 0 .082.028.146.084.19a.5.5 0 0 0 .209.104c.082.022.198.048.35.075.198.034.359.071.483.108.122.04.228.106.315.2.088.092.13.225.13.392a.616.616 0 0 1-.288.535c-.191.133-.453.2-.784.2l.003.005Zm-1.789-2.99a.301.301 0 0 1-.217-.084.275.275 0 0 1-.087-.207c0-.082.03-.151.087-.21a.293.293 0 0 1 .217-.087.3.3 0 0 1 .217.082.27.27 0 0 1 .088.204.29.29 0 0 1-.088.213.293.293 0 0 1-.217.087v.003Zm-.225.478h.45v2.483h-.45v-2.483Zm-2.143 1.987a.915.915 0 0 0 .437-.104.761.761 0 0 0 .304-.289.793.793 0 0 0 .111-.419.76.76 0 0 0-.238-.584.86.86 0 0 0-.611-.222.872.872 0 0 0-.617.223.76.76 0 0 0-.238.583.78.78 0 0 0 .413.708.92.92 0 0 0 .442.104h-.003Zm1.289-1.987v2.146c0 .435-.109.756-.323.962-.214.207-.534.31-.963.31-.233 0-.455-.031-.67-.095a1.333 1.333 0 0 1-.513-.273l.214-.347c.117.1.257.177.43.236a1.6 1.6 0 0 0 .526.087c.288 0 .502-.069.643-.207.137-.138.206-.347.206-.628v-.196a1.027 1.027 0 0 1-.389.289 1.305 1.305 0 0 1-.503.095c-.235 0-.45-.05-.643-.151-.19-.1-.341-.244-.45-.427a1.2 1.2 0 0 1-.163-.626 1.2 1.2 0 0 1 .163-.626 1.12 1.12 0 0 1 .45-.424c.19-.101.405-.149.643-.149.188 0 .36.035.522.104.16.069.29.17.394.305v-.385h.426Zm-4.273 2.117a.842.842 0 0 0 .426-.11.778.778 0 0 0 .296-.31.944.944 0 0 0 .108-.456.916.916 0 0 0-.108-.456.771.771 0 0 0-.296-.308.855.855 0 0 0-.426-.108.865.865 0 0 0-.43.108.777.777 0 0 0-.298.308.916.916 0 0 0-.108.456c0 .173.036.324.108.457a.802.802 0 0 0 .299.31c.127.074.27.109.429.109Zm0 .395c-.246 0-.469-.056-.665-.165a1.196 1.196 0 0 1-.46-.45 1.273 1.273 0 0 1-.167-.653c0-.244.056-.462.167-.652a1.17 1.17 0 0 1 .46-.449c.196-.108.419-.162.665-.162.246 0 .465.053.661.162.196.109.347.258.458.448.11.191.166.409.166.653 0 .244-.055.461-.166.652-.111.191-.265.343-.458.451a1.338 1.338 0 0 1-.661.165Zm-3.736-3.308h.468v2.87h1.77v.409H55.79v-3.279Z" fill="currentColor"/></g></g></symbol><symbol id="select-close" viewBox="0 0 20 14"><g fill="none"><path d="m19.998.828-9.103 6.173 9.103 6.174-.56.828-9.433-6.398-.006.005-.007-.005-9.431 6.398L0 13.175 9.102 7 0 .828.56 0l9.432 6.396.007-.003.006.003L19.437 0l.561.828Z" fill="currentColor"/></g></symbol><symbol id="shipment" viewBox="0 0 225 176"><g fill="none"><path d="M174.5 136.625c0 .519-.309 1.108-1.089 1.757-.776.644-1.95 1.288-3.509 1.915-3.114 1.251-7.65 2.389-13.292 3.348-11.275 1.917-26.87 3.105-44.11 3.105s-32.835-1.188-44.11-3.105c-5.642-.959-10.178-2.097-13.292-3.348-1.56-.627-2.733-1.271-3.509-1.915-.78-.649-1.089-1.238-1.089-1.757 0-.519.309-1.108 1.09-1.757.775-.644 1.949-1.288 3.508-1.915 3.114-1.251 7.65-2.389 13.292-3.348 11.275-1.917 26.87-3.105 44.11-3.105s32.835 1.188 44.11 3.105c5.642.959 10.178 2.097 13.292 3.348 1.559.627 2.733 1.271 3.509 1.915.78.649 1.089 1.238 1.089 1.757Z" stroke="url(#shipment-a)"/><path d="M148.25 132.25c0 .22-.128.515-.559.877-.426.359-1.084.728-1.978 1.093-1.786.728-4.399 1.394-7.665 1.957-6.525 1.125-15.557 1.823-25.548 1.823-9.991 0-19.023-.698-25.548-1.823-3.266-.563-5.88-1.229-7.665-1.957-.895-.365-1.553-.734-1.978-1.093-.43-.362-.559-.657-.559-.877 0-.22.128-.515.559-.877.425-.359 1.084-.728 1.978-1.093 1.786-.728 4.4-1.394 7.665-1.957 6.525-1.125 15.557-1.823 25.548-1.823 9.991 0 19.023.698 25.548 1.823 3.266.563 5.879 1.229 7.665 1.957.894.365 1.552.734 1.978 1.093.431.362.559.657.559.877Z" stroke="url(#shipment-b)"/><path d="M137 130.375c0 .094-.053.262-.333.502-.276.236-.713.487-1.323.739-1.215.503-3.005.967-5.253 1.36-4.487.785-10.707 1.274-17.591 1.274s-13.104-.489-17.591-1.274c-2.249-.393-4.038-.857-5.253-1.36-.61-.252-1.047-.503-1.323-.739-.28-.24-.333-.408-.333-.502 0-.094.053-.262.333-.502.276-.236.713-.487 1.323-.739 1.215-.503 3.004-.967 5.252-1.36 4.488-.785 10.708-1.274 17.592-1.274 6.884 0 13.104.489 17.591 1.274 2.248.393 4.038.857 5.253 1.36.61.252 1.047.503 1.323.739.28.24.333.408.333.502Z" stroke="url(#shipment-c)"/><path d="M158.25 134.125c0 .354-.203.775-.765 1.258-.56.48-1.414.966-2.561 1.443-2.291.951-5.636 1.819-9.807 2.552-8.333 1.464-19.865 2.372-32.617 2.372-12.752 0-24.284-.908-32.617-2.372-4.17-.733-7.516-1.601-9.807-2.552-1.147-.477-2.001-.963-2.56-1.443-.563-.483-.766-.904-.766-1.258s.203-.775.765-1.258c.56-.48 1.414-.966 2.561-1.443 2.291-.951 5.636-1.819 9.807-2.552 8.333-1.464 19.865-2.372 32.617-2.372 12.752 0 24.284.908 32.617 2.372 4.171.733 7.516 1.601 9.807 2.552 1.147.477 2.001.963 2.561 1.443.562.483.765.904.765 1.258Z" stroke="url(#shipment-d)"/><path d="M188.25 140.375c0 .799-.428 1.645-1.388 2.529-.959.884-2.403 1.761-4.308 2.61-3.806 1.696-9.346 3.237-16.23 4.534-13.759 2.594-32.789 4.202-53.824 4.202-21.034 0-40.065-1.608-53.824-4.202-6.884-1.297-12.424-2.838-16.23-4.534-1.905-.849-3.349-1.726-4.308-2.61-.96-.884-1.388-1.73-1.388-2.529 0-.799.428-1.645 1.388-2.529.96-.884 2.403-1.761 4.308-2.61 3.806-1.696 9.346-3.237 16.23-4.534 13.76-2.594 32.79-4.202 53.824-4.202 21.035 0 40.065 1.608 53.824 4.202 6.884 1.297 12.424 2.838 16.23 4.534 1.905.849 3.349 1.726 4.308 2.61.96.884 1.388 1.73 1.388 2.529Z" stroke="url(#shipment-e)"/><path d="M224.5 151c0 1.563-.71 3.133-2.153 4.7-1.446 1.569-3.602 3.108-6.42 4.589-5.637 2.961-13.825 5.643-23.986 7.901-20.313 4.514-48.4 7.31-79.441 7.31-31.04 0-59.128-2.796-79.441-7.31-10.16-2.258-18.35-4.94-23.986-7.901-2.818-1.481-4.974-3.02-6.42-4.589C1.21 154.133.5 152.563.5 151c0-1.563.71-3.133 2.153-4.7 1.446-1.569 3.602-3.108 6.42-4.589 5.637-2.961 13.825-5.643 23.986-7.901 20.313-4.514 48.4-7.31 79.441-7.31 31.041 0 59.128 2.796 79.441 7.31 10.161 2.258 18.349 4.94 23.986 7.901 2.818 1.481 4.974 3.02 6.42 4.589 1.443 1.567 2.153 3.137 2.153 4.7Z" stroke="url(#shipment-f)"/><path d="M199.5 144.75c0 1.125-.53 2.272-1.639 3.433-1.112 1.164-2.776 2.311-4.963 3.419-4.372 2.215-10.731 4.225-18.631 5.917C158.476 160.903 136.638 163 112.5 163c-24.138 0-45.976-2.097-61.767-5.481-7.9-1.692-14.259-3.702-18.63-5.917-2.188-1.108-3.852-2.255-4.964-3.419-1.11-1.161-1.639-2.308-1.639-3.433s.53-2.272 1.64-3.433c1.11-1.164 2.775-2.311 4.962-3.419 4.372-2.215 10.732-4.225 18.63-5.917 15.792-3.384 37.63-5.481 61.768-5.481 24.138 0 45.976 2.097 61.767 5.481 7.9 1.692 14.259 3.702 18.631 5.917 2.187 1.108 3.851 2.255 4.963 3.419 1.109 1.161 1.639 2.308 1.639 3.433Z" stroke="url(#shipment-g)"/><path d="M214.5 147.875c0 1.34-.634 2.697-1.943 4.063-1.312 1.367-3.271 2.71-5.837 4.005-5.131 2.589-12.589 4.935-21.846 6.911-18.505 3.949-44.094 6.396-72.374 6.396-28.28 0-53.869-2.447-72.374-6.396-9.257-1.976-16.714-4.322-21.846-6.911-2.566-1.295-4.525-2.638-5.837-4.005-1.309-1.366-1.943-2.723-1.943-4.063 0-1.34.634-2.697 1.943-4.063 1.312-1.367 3.27-2.71 5.837-4.005 5.131-2.589 12.59-4.935 21.846-6.911C58.63 128.947 84.22 126.5 112.5 126.5c28.28 0 53.869 2.447 72.374 6.396 9.257 1.976 16.715 4.322 21.846 6.911 2.566 1.295 4.525 2.638 5.837 4.005 1.309 1.366 1.943 2.723 1.943 4.063Z" stroke="url(#shipment-h)"/><path d="M105.933 82.45c.934-2.3 3.29-3.95 6.067-3.95s5.133 1.65 6.067 3.95c.521 1.282.085 2.757-.656 4.167L112 96.924l-5.411-10.307c-.741-1.41-1.177-2.885-.656-4.167Z" stroke="#fff"/><path d="M99.402 76.711C101.35 71.918 106.248 68.5 112 68.5c5.752 0 10.65 3.418 12.598 8.211 1.13 2.782.16 5.912-1.333 8.756L112 106.924l-11.265-21.457c-1.493-2.844-2.463-5.974-1.333-8.756Z" stroke="#fff"/><path d="M93.914 63.81c3.45-6.13 10.25-10.31 18.086-10.31 7.836 0 14.636 4.18 18.086 10.31 3.036 5.396.897 11.956-2.113 17.69L112 111.923 96.027 81.499c-3.01-5.732-5.149-12.293-2.113-17.688Z" stroke="#fff"/><path d="M84.275 51.8C88.395 41.137 99.243 33.5 112 33.5c12.757 0 23.604 7.636 27.724 18.3 2.269 5.873.224 12.34-2.814 18.08L112 116.93 87.09 69.88c-3.038-5.74-5.083-12.207-2.815-18.08Z" stroke="#fff"/><path d="M75.68 38.638C80.954 24.59 95.213 14.5 112 14.5s31.047 10.09 36.319 24.138c2.798 7.453.214 15.603-3.615 22.803L112 122.935 79.296 61.441c-3.829-7.2-6.413-15.35-3.615-22.803Z" stroke="#fff"/><path d="M73.514 20.63C81.573 8.537 95.793.5 112 .5c16.207 0 30.427 8.038 38.486 20.13 4.412 6.62 5.197 14.188 3.925 21.916-1.273 7.736-4.603 15.6-8.376 22.764L112 129.927 77.965 65.31c-3.773-7.164-7.103-15.028-8.376-22.764-1.272-7.728-.487-15.295 3.925-21.916Z" stroke="#fff"/></g></symbol><symbol id="vi" viewBox="0 0 10 10"><g fill="none"><path fill-rule="evenodd" clip-rule="evenodd" d="M7.754 2a1 1 0 1 0 0-2 1 1 0 0 0 0 2ZM1.5 3H0l2.5 6h1.504l2.5-6h-1.5L3.252 7.205 1.5 3Zm7.004 6V3h-1.5v6h1.5Z" fill="currentColor"/></g></symbol><symbol id="video-fullscreen" viewBox="0 0 20 20"><g fill="none"><path display="var(--is-visible--md-up)" d="M2 8V2h6m10 6V2h-6m6 10v6h-6M2 12v6h6" stroke="currentColor" fill="none" stroke-width="1"/><path display="var(--is-visible--sm-down)" d="M4 8.5V4h4.5M16 8.5V4h-4.5m4.5 7.5V16h-4.5M4 11.5V16h4.5" stroke="currentColor" stroke-width="1"/></g></symbol><symbol id="video-minimize" viewBox="0 0 20 20"><g fill="none"><g display="var(--is-visible--md-up)" stroke="currentColor" stroke-width="1"><path d="M12.5 2v5.5H18M7.5 2v5.5H2M18 12.5h-5.5V18M7.5 18v-5.5H2"/></g><g display="var(--is-visible--sm-down)" stroke="currentColor" stroke-width="1"><path d="M11.875 4v4.125H16M8.125 4v4.125H4M16 11.875h-4.125V16M8.125 16v-4.125H4"/></g></g></symbol><symbol id="video-mute" viewBox="0 0 20 20"><g fill="none"><path display="var(--is-visible--md-up)" d="M7 6.923 15 2v16l-8-4.923m0-6.154v6.154m0-6.154H4v6.154h3" fill="none" stroke="currentColor"/><path display="var(--is-visible--sm-down)" d="M7.455 7.692 14 4v12l-6.545-3.692m0-4.616v4.616m0-4.616H5v4.616h2.455" fill="none" stroke="currentColor"/></g></symbol><symbol id="video-pause" viewBox="0 0 20 20"><g fill="none"><path display="var(--is-visible--md-up)" d="M13 18V2M7 18V2" fill="none" stroke="currentColor"/><path display="var(--is-visible--sm-down)" d="M12 16V4M8 16V4" fill="none" stroke="currentColor"/></g></symbol><symbol id="video-play" viewBox="0 0 20 20"><g fill="none"><path display="var(--is-visible--md-up)" d="M18.286 10.429 5.429 19V1.857l12.857 8.572Z" fill="none" stroke="currentColor"/><path display="var(--is-visible--sm-down)" d="M15.905 10.714 7.334 16.43V5l8.571 5.714Z" fill="none" stroke="currentColor"/></g></symbol><symbol id="video-unmute" viewBox="0 0 20 20"><g fill="none"><path display="var(--is-visible--md-up)" d="M7 6.923 15 2v16l-8-4.923m0-6.154v6.154m0-6.154H4v6.154h3M18 15 2 5" fill="none" stroke="currentColor"/><path display="var(--is-visible--sm-down)" d="m7.75 7.692 6-3.692v12l-6-3.692m0-4.616v4.616m0-4.616H5.5v4.616h2.25M16 13.75 4 6.25" fill="none" stroke="currentColor"/></g></symbol></svg>