<svg width="16" height="16" viewBox="0 0 16 16" fill="none" xmlns="http://www.w3.org/2000/svg">
<rect width="16" height="16" rx="2" fill="#172E64"/>
<g clip-path="url(#clip0_2021_3)">
<path fill-rule="evenodd" clip-rule="evenodd" d="M4.84402 4.92554H6.12881C6.89994 4.16784 7.95644 3.7 9.12201 3.7C11.4849 3.7 13.4 5.61968 13.4 7.98813C13.4 10.3566 11.4849 12.2763 9.12201 12.2763C7.95644 12.2763 6.89994 11.8084 6.12881 11.0507H4.84402V9.82517H6.67672C7.23351 10.5689 8.12132 11.0507 9.12074 11.0507C10.8076 11.0507 12.1761 9.68024 12.1761 7.98813C12.1761 6.29601 10.8076 4.92554 9.12074 4.92554C8.12132 4.92554 7.23351 5.4061 6.67672 6.15108H2.4V4.92554H4.84402Z" fill="#FF6340"/>
<path fill-rule="evenodd" clip-rule="evenodd" d="M6.12738 7.37535H8.51052H9.7319V8.59962H8.51052H6.12738H5.19518H4.88825H4.84386H3.62248V7.37535H4.84386H4.88825H5.19518H6.12738Z" fill="#FF6340"/>
</g>
<defs>
<clipPath id="clip0_2021_3">
<rect width="11" height="11" fill="white" transform="translate(2.4 2.5)"/>
</clipPath>
</defs>
</svg>
