<svg xmlns="http://www.w3.org/2000/svg" width="161" height="161" fill="none"><path stroke="url(#a)" d="M68.33 66.67H6a5 5 0 0 0-5 5V155a5 5 0 0 0 5 5h75"/><path fill="url(#b)" fill-rule="evenodd" d="M10.83 44V17.67a2.5 2.5 0 0 1 2.5-2.5h34.63l-4.68 5.85.78.63 5.33-6.67.25-.31-.25-.32-5.33-6.66-.78.62 4.68 5.86H13.33a3.5 3.5 0 0 0-3.5 3.5V44h1Zm37.5-29.37v.07l.03-.03-.03-.04Z" clip-rule="evenodd"/><rect width="92.33" height="159" x="68.17" y=".5" stroke="url(#c)" rx="4.5"/><rect width="25.67" height="4.33" x="101.5" y="8.5" stroke="url(#d)" rx="1.5"/><rect width="25.67" height="4.33" x="9.5" y="126.17" stroke="url(#e)" rx="1.5" transform="rotate(-90 9.5 126.17)"/><path stroke="url(#f)" d="M156 51.67V153a2 2 0 0 1-2 2H94"/><path stroke="url(#g)" d="M57.33 71.67H8a2 2 0 0 0-2 2v20"/><defs><linearGradient id="a" x1="69.67" x2="-24.63" y1="158" y2="121.53" gradientUnits="userSpaceOnUse"><stop offset="0" stop-color="#172E64"/><stop offset="1" stop-color="#376CE7"/></linearGradient><linearGradient id="b" x1="32.29" x2="13.59" y1="6.77" y2="47.23" gradientUnits="userSpaceOnUse"><stop offset="0" stop-color="#FF6340"/><stop offset="1" stop-color="#FF6340" stop-opacity="0"/></linearGradient><linearGradient id="c" x1="145.67" x2="71" y1="0" y2="160" gradientUnits="userSpaceOnUse"><stop offset="0" stop-color="#172E64"/><stop offset="1" stop-color="#376CE7"/></linearGradient><linearGradient id="d" x1="126.33" x2="128.29" y1="8.67" y2="23.67" gradientUnits="userSpaceOnUse"><stop offset="0" stop-color="#172E64"/><stop offset="1" stop-color="#376CE7"/></linearGradient><linearGradient id="e" x1="34.33" x2="36.29" y1="127.33" y2="142.34" gradientUnits="userSpaceOnUse"><stop offset="0" stop-color="#172E64"/><stop offset="1" stop-color="#376CE7"/></linearGradient><linearGradient id="f" x1="108.67" x2="143.14" y1="158.33" y2="55.79" gradientUnits="userSpaceOnUse"><stop offset="0" stop-color="#172E64" stop-opacity=".1"/><stop offset=".54" stop-color="#376CE7"/><stop offset="1" stop-color="#172E64" stop-opacity=".1"/></linearGradient><linearGradient id="g" x1="6" x2="51.7" y1="96.74" y2="78.77" gradientUnits="userSpaceOnUse"><stop offset="0" stop-color="#172E64" stop-opacity=".2"/><stop offset=".76" stop-color="#376CE7"/><stop offset="1" stop-color="#172E64" stop-opacity=".2"/></linearGradient></defs></svg>
